<svg xmlns="http://www.w3.org/2000/svg" id="Componente_295_1" width="216.048" height="182.467" viewBox="0 0 216.048 182.467">
    <defs>
        <style>
            .cls-2{fill:#389847}.cls-3{fill:#2c7735}.cls-4{fill:#e6e6e6}.cls-7{fill:#191216}.cls-8{fill:#281e24}.cls-9{fill:#f2f2f2}.cls-10{fill:#fff}.cls-11{fill:#4462b7}.cls-12{fill:#3951a8}.cls-16{fill:#de912f}.cls-17{fill:#bc6e19}.cls-19{fill:#a51e28}.cls-20{fill:#f9ddc7}.cls-21{fill:none;stroke:#fff;stroke-linecap:round;stroke-miterlimit:10;stroke-width:.5px}.cls-22{fill:#ed1c24}.cls-23{fill:#f7931e}
        </style>
    </defs>
    <path id="Trazado_2997" fill="#e83856" d="M152.418 177.746s.4-4.325 4.527-12.269h7.44l-5.158 12.269z" transform="translate(-121.115 -38.433)"/>
    <path id="Trazado_2998" d="M155.329 193.583c2.985-3.935 6.5-11.106 1.746-13.174-2.725-1.184-6.057.964-8.1 2.651a15.839 15.839 0 0 0-3.735 4.468c-1.02 1.825-1.465 3.89-2.444 5.735a2.984 2.984 0 0 0-3.931-.648c-.85-5.286-2.738-14.193-8.784-11.268-5.472 2.648-4.976 8.62-3.071 13.345-2.23-1.239-5.027-1.865-5.8 1.225a4.49 4.49 0 0 0 1.78 4.293 8.263 8.263 0 0 0 2.228 1.4 7.578 7.578 0 0 1 1.107.376c.326.214.316.638.7.858a2.465 2.465 0 0 0 .96.246 166.888 166.888 0 0 0 19.2.616c3.937-.03 7.55.043 10.544-2.809 4.549-4.336 2.095-7.775-2.4-7.314z" class="cls-2" transform="translate(-121.115 -38.433)"/>
    <path id="Trazado_2999" d="M163.662 197.483c1.493-1.968 3.251-5.553.873-6.587-1.362-.592-3.028.482-4.05 1.325a7.932 7.932 0 0 0-1.867 2.234c-.51.913-.733 1.946-1.222 2.868a1.492 1.492 0 0 0-1.966-.323c-.425-2.643-1.369-7.1-4.392-5.634-2.736 1.324-2.488 4.31-1.535 6.673-1.115-.62-2.514-.933-2.9.612a2.249 2.249 0 0 0 .89 2.147 4.162 4.162 0 0 0 1.114.7 3.681 3.681 0 0 1 .554.188c.163.107.158.319.348.429a1.23 1.23 0 0 0 .48.123 83.549 83.549 0 0 0 9.6.308c1.969-.015 3.775.021 5.272-1.4 2.276-2.174 1.049-3.894-1.199-3.663z" class="cls-3" transform="translate(-121.115 -38.433)"/>
    <path id="Trazado_3000" d="M332.429 195.271c2.144-2.826 4.671-7.977 1.254-9.463-1.957-.851-4.351.692-5.818 1.9a11.374 11.374 0 0 0-2.684 3.21c-.732 1.311-1.052 2.795-1.755 4.12a2.144 2.144 0 0 0-2.824-.466c-.611-3.8-1.967-10.2-6.31-8.094-3.931 1.9-3.575 6.192-2.206 9.586-1.6-.89-3.611-1.34-4.166.88a3.225 3.225 0 0 0 1.279 3.084 5.906 5.906 0 0 0 1.6 1 5.5 5.5 0 0 1 .795.27c.234.154.228.459.5.617a1.782 1.782 0 0 0 .689.177 119.985 119.985 0 0 0 13.8.442c2.828-.021 5.424.031 7.574-2.018 3.264-3.105 1.501-5.576-1.728-5.245z" class="cls-3" transform="translate(-121.115 -38.433)"/>
    <path id="Trazado_3001" d="M315.831 197.047c1.621-2.137 3.531-6.031.948-7.154-1.48-.643-3.289.523-4.4 1.439a8.6 8.6 0 0 0-2.028 2.427c-.554.991-.8 2.113-1.327 3.114a1.621 1.621 0 0 0-2.135-.352c-.462-2.87-1.487-7.707-4.77-6.119-2.972 1.438-2.7 4.681-1.668 7.247-1.211-.673-2.73-1.013-3.148.665a2.437 2.437 0 0 0 .966 2.332 4.49 4.49 0 0 0 1.21.758 4.241 4.241 0 0 1 .6.2c.177.117.172.347.378.466a1.33 1.33 0 0 0 .521.134 90.679 90.679 0 0 0 10.428.334c2.138-.016 4.1.024 5.726-1.525 2.473-2.349 1.14-4.213-1.301-3.966z" class="cls-2" transform="translate(-121.115 -38.433)"/>
    <path id="Trazado_3002" d="M335.8 201.555H122.479a1.365 1.365 0 0 0-1.364 1.365 1.364 1.364 0 0 0 1.364 1.364H335.8a1.365 1.365 0 0 0 1.365-1.364 1.365 1.365 0 0 0-1.365-1.365z" class="cls-4" transform="translate(-121.115 -38.433)"/>
    <path id="Trazado_3003" d="M337.163 216.485c0-2.438-48.364-4.414-108.024-4.414s-108.024 1.976-108.024 4.414 48.364 4.415 108.024 4.415 108.024-1.977 108.024-4.415z" transform="translate(-121.115 -38.433)" style="mix-blend-mode:multiply;isolation:isolate" fill="#999" opacity="0.3"/>
    <path id="Trazado_3004" fill="#2e3e8a" d="M149.552 199.906s1.295-37.175 30.006-48.127h50.356v1.72a10.955 10.955 0 0 1-3.271 7.776 21.071 21.071 0 0 0-6.113 14.916c-.264 12.605 10.837 16.324 16.521 16.324h12.688c6.872 0 16.653-10.262 12.027-28.2s-8.459-33.154-8.459-33.154l6.344-2.535s6.512 27.34 7.8 30.425c1.424 3.416 5.906 3.851 8.757 5.869a13.241 13.241 0 0 1 4.218 5.685l-5.706 1.969s1.643 27.336-24.983 27.336H149.552z" transform="translate(-121.115 -38.433)"/>
    <g id="Grupo_564" transform="translate(-121.115 -38.433)">
        <circle id="Elipse_31" cx="18.125" cy="18.125" r="18.125" class="cls-7" transform="translate(161.629 181.78)"/>
        <circle id="Elipse_32" cx="18.125" cy="18.125" r="18.125" class="cls-8" transform="translate(161.629 181.78)"/>
        <circle id="Elipse_33" cx="10.611" cy="10.611" r="10.611" class="cls-7" transform="rotate(-67.5 236.833 -21.312)"/>
        <circle id="Elipse_34" cx="7.826" cy="7.826" r="7.826" class="cls-9" transform="translate(171.928 192.079)"/>
        <circle id="Elipse_35" cx="6.486" cy="6.486" r="6.486" class="cls-10" transform="translate(173.269 193.42)"/>
    </g>
    <g id="Grupo_565" transform="translate(-121.115 -38.433)">
        <circle id="Elipse_36" cx="18.125" cy="18.125" r="18.125" class="cls-7" transform="translate(266.062 181.78)"/>
        <circle id="Elipse_37" cx="18.125" cy="18.125" r="18.125" class="cls-8" transform="translate(266.062 181.78)"/>
        <circle id="Elipse_38" cx="10.611" cy="10.611" r="10.611" class="cls-7" transform="rotate(-67.346 289.461 -100.056)"/>
        <circle id="Elipse_39" cx="7.826" cy="7.826" r="7.826" class="cls-9" transform="translate(276.361 192.079)"/>
        <circle id="Elipse_40" cx="6.486" cy="6.486" r="6.486" class="cls-10" transform="translate(277.701 193.42)"/>
    </g>
    <path id="Trazado_3005" d="M153.346 199.906H202.3a17.81 17.81 0 0 0 10.285-11.926c2.194-8.945-5.847-25.168-27.1-24.291s-30.494 21.134-32.139 36.217z" class="cls-11" transform="translate(-121.115 -38.433)"/>
    <path id="Trazado_3006" d="M153.346 199.906H202.3a17.81 17.81 0 0 0 10.285-11.926c2.194-8.945-13.563 8.353-34.819 9.23s-22.775-12.387-24.42 2.696z" class="cls-12" transform="translate(-121.115 -38.433)"/>
    <path id="Trazado_3007" d="M300.732 184.481a12.436 12.436 0 0 0-1.658-5.7 14.356 14.356 0 0 0-3.81-4.35 19.059 19.059 0 0 0-11.944-3.522 23.571 23.571 0 0 0-5.758.871 25.038 25.038 0 0 0-10.163 5.663 23.991 23.991 0 0 0-2.033 2.112q-.474.558-.914 1.146c-.291.39-.537.827-.842 1.2a15.93 15.93 0 0 0-1.681 2.806 28.311 28.311 0 0 0-2.9 9.577q-.09.767-.135 1.536a1.319 1.319 0 0 0 .144.846 1.268 1.268 0 0 0 .883.415 14.128 14.128 0 0 0 7.93-1.406c2.48-1.125 4.748-2.66 7.11-4.015a49.367 49.367 0 0 1 6.181-3.005 43.441 43.441 0 0 1 6.582-2.062 37.03 37.03 0 0 1 6.793-.9c1.064-.039 2.129 0 3.191.059.43.026.861.051 1.29.083s1.374.342 1.651-.143a2.216 2.216 0 0 0 .086-1.008l-.003-.203z" class="cls-11" transform="translate(-121.115 -38.433)"/>
    <path id="Trazado_3008" d="M300.736 184.688v-.207a12.227 12.227 0 0 0-1.382-5.14 12.05 12.05 0 0 1 .44 2.863v.208a2.333 2.333 0 0 1-.081 1.008c-.263.484-1.155.175-1.566.142s-.815-.057-1.222-.082a29.937 29.937 0 0 0-3.025-.059 33.385 33.385 0 0 0-6.44.9 39.553 39.553 0 0 0-6.24 2.063 45.718 45.718 0 0 0-5.859 3c-2.239 1.356-4.39 2.89-6.741 4.015a12.8 12.8 0 0 1-7.517 1.407 1.185 1.185 0 0 1-.837-.415 1.385 1.385 0 0 1-.136-.846q.043-.77.127-1.537a29.49 29.49 0 0 1 1.476-6.507q.266-.761.574-1.5c-.125.238-.258.477-.378.711a28.311 28.311 0 0 0-2.9 9.577q-.09.767-.135 1.536a1.319 1.319 0 0 0 .144.846 1.268 1.268 0 0 0 .883.415 14.128 14.128 0 0 0 7.93-1.406c2.48-1.125 4.748-2.66 7.11-4.015a49.222 49.222 0 0 1 6.181-3 43.331 43.331 0 0 1 6.582-2.063 37.03 37.03 0 0 1 6.793-.9c1.064-.039 2.129 0 3.191.059.43.026.861.051 1.29.083s1.374.342 1.651-.143a2.216 2.216 0 0 0 .087-1.013z" class="cls-12" transform="translate(-121.115 -38.433)"/>
    <path id="Rectángulo_200" d="M0 0H45.055V1.157H0z" class="cls-11" transform="translate(22.432 112.189)"/>
    <rect id="Rectángulo_201" width="51.106" height="9.022" class="cls-8" rx="3.635" transform="translate(61.954 104.324)"/>
    <path id="Trazado_3009" fill="#efc8ac" d="M255.312 111.8c-2.548-1.571-5.713-1.968-8.581-2.635q-4.452-1.035-8.976-1.731c-2.582-.395-5.338-.4-7.718-1.6-2.836-1.422-4.37-4.292-6.238-6.709-.693-.9-1.662-1.9-2.76-1.619a2.884 2.884 0 0 0-.864.441q-2.451 1.634-4.75 3.48a1.673 1.673 0 0 0-.579.67 1.631 1.631 0 0 0 .11 1.09 20.669 20.669 0 0 0 8.508 10.194c3.6 2.222 8.117 2.092 12.182 1.756 4.461-.369 8.939-.557 13.369-1.278.745-.121 1.519-.165 1.947.617a1.815 1.815 0 0 1 .173.844 6.374 6.374 0 0 1-.3 2.048 6.567 6.567 0 0 0 2.878-.16 3.506 3.506 0 0 0 1.752-.716 3.08 3.08 0 0 0 .651-1.039c.438-1.008.819-2.461-.215-3.25a7.1 7.1 0 0 0-.589-.403z" transform="translate(-121.115 -38.433)"/>
    <path id="Trazado_3010" d="M269.338 107.886a1.143 1.143 0 0 0-.927-.521c-4.879.35-9.542 2.39-13.942 4.4a24.023 24.023 0 0 0-5.522 3.3c-.323.27-.3.435-.315.85a19.7 19.7 0 0 0 .02 2.062 32.35 32.35 0 0 0 4 13.054c.63 1.324 2.623.407 3.659.018a10.6 10.6 0 0 0 3.089-1.457 1.354 1.354 0 0 0 .449-1.234.662.662 0 0 0 .019-.163c-.067-1.293-.275-2.882.669-3.93 1.246-1.381 3.431-1.205 5.1-1.074l1.936.152c1.111.087 1.93-.921 2.457-1.767a13.046 13.046 0 0 0 1.523-3.561c.856-3.249.567-7.3-1.918-9.8-.104-.106-.2-.215-.297-.329z" class="cls-11" transform="translate(-121.115 -38.433)"/>
    <g id="Grupo_566" transform="translate(-121.115 -38.433)">
        <path id="Trazado_3011" d="M243.754 123.234a1.862 1.862 0 0 1-.785-3.55l8.88-4.127a1.862 1.862 0 0 1 1.568 3.377l-8.88 4.126a1.837 1.837 0 0 1-.783.174z" class="cls-8"/>
    </g>
    <path id="Trazado_3012" d="M270.03 121.575c.088-.142.148-.3.23-.445a13.958 13.958 0 0 1-1.13-1.222 1.4 1.4 0 0 0-1.993-.2c-.01-.01-.008-.023-.02-.033a5.464 5.464 0 0 0-7.929 1.328c-1.05 1.46-.812 2.893-1.256 4.522-.827 3.036-3.145 4.072-5.818 4.447.176.353.351.708.536 1.054.63 1.324 2.623.407 3.659.018a10.6 10.6 0 0 0 3.089-1.457 1.354 1.354 0 0 0 .449-1.234.662.662 0 0 0 .019-.163c-.067-1.293-.275-2.882.669-3.93 1.246-1.381 3.431-1.205 5.1-1.074l1.936.152c1.113.091 1.929-.917 2.459-1.763z" class="cls-12" transform="translate(-121.115 -38.433)"/>
    <path id="Trazado_3013" d="M270.03 121.575a13.046 13.046 0 0 0 1.523-3.561c.856-3.249.567-7.3-1.918-9.8-.1-.1-.2-.217-.3-.327a1.143 1.143 0 0 0-.927-.521c-.514.037-1.024.1-1.534.175a20.98 20.98 0 0 0 0 15.747l.694.055c1.116.086 1.932-.922 2.462-1.768z" class="cls-9" transform="translate(-121.115 -38.433)"/>
    <path id="Trazado_3014" d="M271.445 111.252a7.725 7.725 0 0 0-1.81-3.039c-.1-.1-.2-.217-.3-.327a1.143 1.143 0 0 0-.927-.521c-.514.037-1.024.1-1.534.175a20.675 20.675 0 0 0-.674 13.77c.5.277.1-.369.765-1.925 0-.008-.015-.013-.023-.018a11.548 11.548 0 0 1 2.17-5.933 8.849 8.849 0 0 1 2.333-2.182z" class="cls-4" transform="translate(-121.115 -38.433)"/>
    <path id="Trazado_3015" d="M267.841 123.331a25.6 25.6 0 0 1 .586-15.964h-.016a23.628 23.628 0 0 0-3.076.449 27.036 27.036 0 0 0-.441 15.323c.255.016.5.034.743.053l1.936.152a1.7 1.7 0 0 0 .268-.013z" class="cls-10" transform="translate(-121.115 -38.433)"/>
    <g id="Grupo_567" transform="translate(-121.115 -38.433)">
        <path id="Rectángulo_202" fill="#4b154f" d="M0 0H48.354V50.911H0z" transform="translate(133.696 99.711)"/>
        <path id="Rectángulo_203" fill="#6d1f71" d="M0 0H40.135V42.257H0z" transform="translate(137.805 104.038)"/>
    </g>
    <path id="Trazado_3016" d="M265.335 107.814a10.133 10.133 0 0 1 5.854-1.005 24.814 24.814 0 0 1-7.114 11.238s-.745-3.44 1.26-10.233z" class="cls-9" transform="translate(-121.115 -38.433)"/>
    <path id="Rectángulo_204" d="M0 0H1.141V5.663H0z" class="cls-11" transform="translate(51.551 113.346)"/>
    <path id="Trazado_3017" d="M163.246 166.97H162.1l-11.258-15.191h1.141z" class="cls-11" transform="translate(-121.115 -38.433)"/>
    <g id="Grupo_568" transform="translate(-121.115 -38.433)">
        <path id="Trazado_3018" d="M249.212 137.948a28.151 28.151 0 0 0-8.382-7c-5.58-2.977-11.058-5.408-16.722-6.325-7.412-1.2-13.331-4.629-20.959-4.734a1.675 1.675 0 0 0-1.009.3c.021-.206.035-.413.062-.616.023-.174-.25-.234-.325-.088-2.93 5.657-2.983 13.571 2.253 17.781 6.448 5.185 15.407 5.981 23.59 5.4 3.241-.232 6.978 2.96 8.245 5.648 2.3 4.89 1.176 10.81.9 16.069-.371 6.981-.647 14.119-1.443 21.041a.854.854 0 0 0 .119.537.569.569 0 0 0 .34.986c2.388.257 4.761.513 7.157.684.391.027-.212-1.4-.141-1.759 1.314-6.68 4.065-12.711 5.64-19.666 1.986-8.795 7.013-20.423.675-28.258z" class="cls-16"/>
        <path id="Trazado_3019" d="M240.64 151.3q-.255-1.192-.606-2.37a16.835 16.835 0 0 0-4.107-7.235c-6.154-6.066-16.838-1.9-22.359-8.949-.278-.355-2.617-4.223-2.149-4.438a.629.629 0 0 0 .372-.518c.611-5.68-5.912-3.834-11.878-1.013-.195 3.972 1.023 7.918 4.217 10.486 6.448 5.185 15.407 5.981 23.59 5.4 3.241-.232 6.978 2.96 8.245 5.648 2.3 4.89 1.176 10.81.9 16.069-.371 6.981-.647 14.119-1.443 21.041a.854.854 0 0 0 .119.537.569.569 0 0 0 .34.986c.41.044.818.085 1.227.128.73-4.277 1.406-8.565 2.42-12.764 1.754-7.282 2.698-15.616 1.112-23.008z" class="cls-17"/>
        <path id="Trazado_3020" fill="#cb2228" d="M228.313 120.542c-1.467-8.6.347-17.443-1.956-25.908a22.528 22.528 0 0 0-3.146-6.921c-1.516-2.193-3.842-3.192-6.385-3.794-4.753-1.127-8.533 3.571-10.555 7.251-3.467 6.306-4.476 13.494-5.926 20.435-.753 3.6-1.406 7.228-2 10.861-.857 5.222-.689 14.08 6.088 15.168 3.285.528 5.562-1.637 7.882-3.559a50.588 50.588 0 0 1 7.74-5.328 26.545 26.545 0 0 1 3.841-1.732 14.275 14.275 0 0 1 2.222-.807c.681-.123 1.4.167 2.056-.016a1.468 1.468 0 0 0 .949-1.267 4.418 4.418 0 0 0-.221-1.654c-.24-.906-.433-1.816-.589-2.729z"/>
        <path id="Trazado_3021" d="M221.469 126.757c-4.9 1.262-9.5 3.256-13.685-1.9-1.731-2.135-2.928-5.956-3.52-8.491-2.364-10.11-.088-20.557 4.965-29.381a21.54 21.54 0 0 0-2.958 4.189c-3.467 6.306-4.476 13.494-5.926 20.435-.753 3.6-1.4 7.228-2 10.861-.857 5.222-.689 14.08 6.088 15.168 3.285.528 5.562-1.637 7.882-3.559a50.628 50.628 0 0 1 7.739-5.328 26.6 26.6 0 0 1 3.842-1.732 14.3 14.3 0 0 1 2.221-.807c.682-.123 1.4.167 2.057-.016a1.181 1.181 0 0 0 .62-.45 22.986 22.986 0 0 0-7.325 1.011z" class="cls-19"/>
        <path id="Trazado_3022" d="M239.278 54.266a1.013 1.013 0 0 0-1.086-.909c-.021-.033-.008-.076-.042-.1-3.5-2.856-11.179-1.072-15.2-.368a65.932 65.932 0 0 0-7.941 1.973c-.857.264-1.753.54-2.61.883a1.1 1.1 0 0 0-.367 0c-2.1.411-3.525 1.111-4.359 2.754a1.289 1.289 0 0 0-1.562.921c-1 4.325-1.255 10.613 1.041 14.887a9.58 9.58 0 0 0 2.87 4.442 17.457 17.457 0 0 0 4.7 2.682 7.3 7.3 0 0 1-.323 1.5c-.336 1.383-.42 1.9.365 2.655a5.543 5.543 0 0 0 3.19 1.351 4.706 4.706 0 0 0 3.507-.621 2.286 2.286 0 0 0 .615-1.383 15.738 15.738 0 0 0 .266-1.652.16.16 0 0 1 .045-.094.148.148 0 0 1 .077-.02 14.75 14.75 0 0 0 2.385-.34c.4-.09.8-.2 1.188-.321.327-.1.638-.134.964-.214a12.611 12.611 0 0 0 3.277-1.491 16.323 16.323 0 0 0 4.883-4.534 21.678 21.678 0 0 0 2.952-6.027 31.991 31.991 0 0 0 1.341-6.818 42.142 42.142 0 0 0 .051-6.907q-.088-1.13-.227-2.249z" class="cls-20"/>
        <path id="Trazado_3023" d="M245.677 57.782c-.129-1.682-2.21-2.769-3.628-3.2-1.136-.343-2.321-.5-3.46-.843a13.061 13.061 0 0 0-3.981-1.028 1.242 1.242 0 0 0-.812.315c-3.794-1.313-8.467-.059-12.159 1.043-4.658 1.391-10.318 2.075-14.331 4.918a1.806 1.806 0 0 0-.591.678c-.136.281-.047.435-.351.45s-.622-.1-.931-.1a3.118 3.118 0 0 0-.858.13c-2.1.633-2.44 3.713-2.254 5.512a17.365 17.365 0 0 0 1 4.236 14.007 14.007 0 0 0 2.379 3.9c.207.252 2.555 2.97 2.6 2.923a5.865 5.865 0 0 0 1.706-3.327 4 4 0 0 0 .064-.976c-.034-.348-.229-.421-.546-.571-.572-.269-1.2-.379-1.778-.64a3.255 3.255 0 0 1-1.71-1.808c-1.438-2.564 1.849-6 3.936-3.481 1.04 1.7 2.808 4.159 4.894 2.154a2.72 2.72 0 0 0 .634-2.6 4.04 4.04 0 0 1 1.33-3.768c3.315 1.06 7.7 2.9 11.126 1.495a2.8 2.8 0 0 0 1.945-2.175 9.887 9.887 0 0 0 4.561 2.141c1.973.305 5.133.12 6.311-1.809a2.448 2.448 0 0 0 .378-1.44c2.304.699 4.749.715 4.526-2.129z" class="cls-8"/>
        <path id="Trazado_3024" d="M249.954 116.445c-.132-.042-.267-.079-.4-.114a93.083 93.083 0 0 0-10.466-1.9c-3.584-.523-7.19-.915-10.808-1.111q-.981-.053-1.963-.086a8.736 8.736 0 0 1-1.683-.043c-.432-.054-.382 0-.5-.372a7.764 7.764 0 0 1-.149-1.03 36.3 36.3 0 0 0-1.066-4.17c-.254-.845-.538-1.68-.754-2.536a5.974 5.974 0 0 0-.19-.776.973.973 0 0 0-1.027-.6 20.259 20.259 0 0 0-4.639.914c-.574.189-3.843 1.219-3.8 2.007.29 5.354.645 14.164 7.027 15.394a23.684 23.684 0 0 0 5.869.256c1.31-.074 2.545-.423 3.832-.607a133.59 133.59 0 0 0 14.671-2.648c.73-.19 1.5-.306 1.995.434a1.8 1.8 0 0 1 .251.824 6.353 6.353 0 0 1-.1 2.067 6.568 6.568 0 0 0 2.851-.428 3.5 3.5 0 0 0 1.677-.875 3.073 3.073 0 0 0 .552-1.1c.343-1.044.586-2.527-.516-3.216a2.938 2.938 0 0 0-.664-.284z" class="cls-20"/>
        <path id="Trazado_3025" d="M222.743 95.111c-1.115-2.718-2.87-4.908-5.816-4.777-4.336.194-5.436 6.169-5.621 9.544-.09 1.64-.258 3.279-.22 4.923.018.8-.017 3.938.961 4.264a.922.922 0 0 0 .359.021l10.474-.789a3.93 3.93 0 0 0 1.262-.236c2.017-.861.844-3.616.549-5.152a40.957 40.957 0 0 0-1.948-7.798z" class="cls-19"/>
        <path id="Trazado_3026" d="M220.19 60.6s13.319-.133 24.733-6.058-24.015-4.006-24.015-4.006z" class="cls-17"/>
        <path id="Trazado_3027" d="M236.418 54.956a2.562 2.562 0 0 0 .638-2.124 19.483 19.483 0 0 0-1.775-4.914 15.406 15.406 0 0 0-9.413-8.511c-6.459-1.985-14.223-1.105-18.848 4.208a18.14 18.14 0 0 0-4.181 9.356c-.273 1.975-.614 8.87 2.357 8.875a88.684 88.684 0 0 0 17.194-1.651 49.649 49.649 0 0 0 8.454-2.232c1.448-.563 4.282-1.456 5.574-3.007z" class="cls-16"/>
        <path id="Trazado_3028" d="M220.589 58.524c-5.379 0-14.472.236-14.329-8.433.063-3.773 2.845-7.337 5.505-9.986a14.265 14.265 0 0 0-4.745 3.51 18.14 18.14 0 0 0-4.181 9.356c-.273 1.975-.614 8.87 2.357 8.875a88.684 88.684 0 0 0 17.194-1.651 49.649 49.649 0 0 0 8.454-2.232l.433-.163a83.849 83.849 0 0 1-10.688.724z" class="cls-17"/>
        <path id="Trazado_3029" d="M237.18 70.924a66.711 66.711 0 0 1-15.263-.565 35.754 35.754 0 0 1-4.42-.726 1.862 1.862 0 0 0-2.368.829 4.262 4.262 0 0 0-.295 2.468 11.3 11.3 0 0 0 1.7 5.659 7.783 7.783 0 0 0 1.24 1.423 12.263 12.263 0 0 0 5.966 2.746c4.074.721 7.931-1.532 10.59-4.45a13.618 13.618 0 0 0 3.509-6.7.6.6 0 0 0-.659-.684z" class="cls-16"/>
        <path id="Trazado_3030" d="M215.769 70.417a12.489 12.489 0 0 1-5.795-4.494" class="cls-21"/>
        <path id="Trazado_3031" d="M215.506 73.574a8.56 8.56 0 0 1-6.229-1.357" class="cls-21"/>
        <path id="Trazado_3032" d="M249.237 190.078a24.514 24.514 0 0 0-4.907-4.844c-1.755-1.238-1.939-1.024-4.046-.951-1.34.047-4.111-.293-4.926.86a6.728 6.728 0 0 0-.851 4.487 1.388 1.388 0 0 0 .3 1.337c1.2 1.484 4.243 1.431 5.965 1.531a26.049 26.049 0 0 0 7.958-.768 1.013 1.013 0 0 0 .507-1.652z" class="cls-8"/>
    </g>
    <g id="Logo_Yoin_2020_validado_Mesa_de_trabajo_1" transform="translate(21 74)">
        <path id="Trazado_2047" d="M281.942 1230.927c-.029.255-.058.631-.087 1.021-.044.615-.072 1.217-.1 1.593-.072.811-.115 1.623-.2 2.434-.2 1.7-.489 2.719-1.078 3.26a2.847 2.847 0 0 1-2.273.691 2.513 2.513 0 0 1-2.158-2.99.372.372 0 0 1 .245-.3.968.968 0 0 1 .545-.015 1.052 1.052 0 0 1 .863.615.557.557 0 0 0 .245.24.875.875 0 0 0 .647.1c.259-.046.489-.165.489-1.082 0-.015 0-.165-.014-.391a4.562 4.562 0 0 1-1.151.15c-2.474 0-3.6-1.758-3.7-4.026v-.015c-.014-.376-.072-.811-.13-1.292a1.154 1.154 0 0 1 .589-.9 1.91 1.91 0 0 1 .82-.165 1.609 1.609 0 0 1 .877.2.917.917 0 0 1 .547.886c-.1.615-.187.977-.2 1.172-.072 1.367.46 2 1.223 2.043a1.126 1.126 0 0 0 1.05-.766v-.12c-.014-.586-.029-1.5-.044-2.359a.932.932 0 0 1 .547-.856 1.638 1.638 0 0 1 .878-.2 2.03 2.03 0 0 1 .834.165c.247.126.779.58.736.907z" class="cls-22" transform="translate(-274.085 -1214.493)"/>
        <path id="Trazado_2048" d="M658.778 1247.46a3.127 3.127 0 0 1-.95 1.141 4.7 4.7 0 0 1-4.546 0 3.159 3.159 0 0 1-.964-1.142 3.807 3.807 0 0 1-.4-2.1 4.183 4.183 0 0 1 1.064-2.719 3.747 3.747 0 0 1 1.669-1.022c.115-.03.23-.046.345-.075a2.2 2.2 0 0 1 .547-.03h.029a2.2 2.2 0 0 1 .547.03c.115.03.23.046.331.075a3.717 3.717 0 0 1 1.683 1.022 4.259 4.259 0 0 1 1.065 2.719 3.7 3.7 0 0 1-.42 2.101zm-3.222-.331c.662 0 1.223-.631 1.122-1.713a1.087 1.087 0 0 0-2.172.09c-.073.932.359 1.623 1.049 1.623z" class="cls-22" transform="translate(-643.656 -1225.873)"/>
        <path id="Trazado_2049" d="M1006.951 1101.423a.873.873 0 0 1 .532.886c-.086.615-.072 1.247-.144 1.863-.058.526-.044 1.052-.115 1.593-.072.511-.072 1.037-.129 1.547a5.248 5.248 0 0 1-.087.676 1.107 1.107 0 0 1-.46.631 1.32 1.32 0 0 1-.82.271.794.794 0 0 1-.618-.316 1.039 1.039 0 0 1-.187-.511c-.014-.315-.014-.646-.029-.961-.072-1.127-.1-2.254-.158-3.366-.014-.481-.014-.961-.072-1.442a1.137 1.137 0 0 1 .575-.9 1.807 1.807 0 0 1 .834-.165 1.61 1.61 0 0 1 .878.194zm-2.172-2.043a1.345 1.345 0 0 1 1.295-1.382 1.3 1.3 0 0 1 1.366 1.367 1.382 1.382 0 0 1-.378.987 1.264 1.264 0 0 1-.945.4 1.339 1.339 0 0 1-1.338-1.372z" class="cls-22" transform="translate(-988.723 -1085.635)"/>
        <path id="Trazado_2050" d="M1159.484 1225.535c0 .571-.014 1.277-.044 1.833a.8.8 0 0 1-.676.826 4.463 4.463 0 0 1-1.093.091.855.855 0 0 1-.734-.826c-.057-.962-.144-1.668-.23-2.614 0-1.668-1.265-1.863-1.9-1.322 0 .015-.014.015-.029.03-.072 1.653-.144 3.471-.158 3.786a.845.845 0 0 1-.676.841 2.315 2.315 0 0 1-.791.075.855.855 0 0 1-.734-.826c-.058-.976-.489-4.944-.547-5.709l-.044-.526a.507.507 0 0 1 .245-.481.525.525 0 0 1 .144-.091 3.37 3.37 0 0 1 2.115-.376 1.059 1.059 0 0 1 .475.21.371.371 0 0 1 .087.3c0 .046-.014.075-.014.12a2.087 2.087 0 0 1 .921-.151 3.112 3.112 0 0 1 .906.105 3.8 3.8 0 0 1 1.683 1.022 4.232 4.232 0 0 1 1.05 2.629 8.72 8.72 0 0 1 .044 1.054z" class="cls-22" transform="translate(-1132.682 -1205.059)"/>
        <path id="Trazado_2051" d="M1521.2 1084.34a4.686 4.686 0 0 1 .845-1.255c.751-.765 1.5-.627 1.952.353a4.374 4.374 0 0 1 .413 1.686 13.359 13.359 0 0 1-1.258 6.883 2.555 2.555 0 0 1-1.069 1.255 1.264 1.264 0 0 1-.92.2.6.6 0 0 1-.338-.2 3.159 3.159 0 0 1-.732-1.686 8.3 8.3 0 0 1-.131-1.667 12.863 12.863 0 0 1 1.238-5.569zm.394 12.02a.788.788 0 0 1-1.052-.725 1.837 1.837 0 0 1 1.145-1.706.929.929 0 0 1 1.014.137.783.783 0 0 1 .282.549 1.9 1.9 0 0 1-1.392 1.745z" class="cls-23" transform="translate(-1492.782 -1070.583)"/>
        <ellipse id="Elipse_14" cx="1.963" cy="2.05" class="cls-23" rx="1.963" ry="2.05" transform="translate(10.416)"/>
        <ellipse id="Elipse_15" cx="1.963" cy="2.05" class="cls-22" rx="1.963" ry="2.05" transform="translate(17.184)"/>
        <path id="Trazado_2052" d="M480.681 640.123a15.015 15.015 0 0 1-10.875-4.7 2.468 2.468 0 0 1 0-3.383 2.222 2.222 0 0 1 3.239 0 10.5 10.5 0 0 0 7.635 3.3 2.395 2.395 0 0 1 0 4.784z" class="cls-23" transform="translate(-464.88 -629.605)"/>
        <path id="Trazado_2053" d="M1009.294 632.038a2.222 2.222 0 0 0-3.239 0 10.5 10.5 0 0 1-7.635 3.3 2.395 2.395 0 0 1 0 4.785 15.016 15.016 0 0 0 10.875-4.7 2.468 2.468 0 0 0-.001-3.385z" class="cls-22" transform="translate(-982.619 -629.607)"/>
    </g>
</svg>
