<svg xmlns="http://www.w3.org/2000/svg" xmlns:xlink="http://www.w3.org/1999/xlink" id="_5" width="89.603" height="69.082" viewBox="0 0 89.603 69.082">
    <defs>
        <linearGradient id="linear-gradient" x2="1" y1=".5" y2=".5" gradientUnits="objectBoundingBox">
            <stop offset="0" stop-color="#377adc"/>
            <stop offset="1" stop-color="#408eff"/>
        </linearGradient>
        <linearGradient id="linear-gradient-2" x1=".5" x2=".452" y1=".484" y2=".622" gradientUnits="objectBoundingBox">
            <stop offset="0" stop-color="#408eff"/>
            <stop offset="1" stop-color="#326fc7"/>
        </linearGradient>
        <linearGradient id="linear-gradient-3" x1=".145" x2=".607" y1="1.031" y2=".336" gradientUnits="objectBoundingBox">
            <stop offset=".064" stop-color="#2e66b7"/>
            <stop offset="1" stop-color="#408eff"/>
        </linearGradient>
        <linearGradient id="linear-gradient-4" x1="-.158" x2=".652" y1="1.945" y2=".158" gradientUnits="objectBoundingBox">
            <stop offset="0" stop-color="#19417b"/>
            <stop offset=".183" stop-color="#1e529d"/>
            <stop offset=".436" stop-color="#2567c7"/>
            <stop offset=".666" stop-color="#2a76e5"/>
            <stop offset=".862" stop-color="#2c7ff8"/>
            <stop offset="1" stop-color="#2e83ff"/>
        </linearGradient>
        <linearGradient id="linear-gradient-5" x1=".399" x2=".772" y1=".341" y2=".871" xlink:href="#linear-gradient-4"/>
        <linearGradient id="linear-gradient-6" x2="1" y1=".5" y2=".5" gradientUnits="objectBoundingBox">
            <stop offset="0" stop-color="#102441"/>
            <stop offset=".14" stop-color="#193967"/>
            <stop offset=".355" stop-color="#27579d"/>
            <stop offset=".556" stop-color="#316fc7"/>
            <stop offset=".737" stop-color="#3980e5"/>
            <stop offset=".891" stop-color="#3e8af8"/>
            <stop offset="1" stop-color="#408eff"/>
        </linearGradient>
        <linearGradient id="linear-gradient-7" x1="0" x2="1" y1=".5" y2=".5" xlink:href="#linear-gradient"/>
        <style>
            .cls-1{fill:#316dc3}.cls-3{fill:#26231f}.cls-4{fill:#3f3932}.cls-5{isolation:isolate}.cls-6{fill:#d8d8d8}.cls-7{fill:#a8a8a8}.cls-8{fill:#bebebe}.cls-9{fill:#2e66b7}.cls-15{fill:#282523}.cls-16{fill:#35312d}.cls-17{fill:#f0fdff}.cls-18{fill:#e9751c}.cls-22{fill:#3677d6}
        </style>
    </defs>
    <g id="Grupo_601" transform="translate(-178.042 -233.505)">
        <path id="Trazado_3089" d="M243.733 253.957c.188-.256.465-.523.774-.452a.48.48 0 0 1 .274.184 8.943 8.943 0 0 1 .307 1.877 6.717 6.717 0 0 1-.275 2.269 1.016 1.016 0 0 1-.589.581 1.154 1.154 0 0 1-1.277-.779 2.589 2.589 0 0 1-.167-1.82 7.386 7.386 0 0 1 .953-1.86z" class="cls-1"/>
        <path id="Trazado_3090" fill="url(#linear-gradient)" d="M244.737 253.645a.46.46 0 0 0-.23-.14c-.309-.071-.586.2-.774.452a7.386 7.386 0 0 0-.953 1.86 2.589 2.589 0 0 0 .167 1.82 9.024 9.024 0 0 0 1.79-3.992z" opacity="0.7"/>
    </g>
    <g id="Grupo_608" transform="translate(-178.042 -233.505)">
        <path id="Trazado_3091" d="M238.123 284.412l-14.561 8.407-3.358-5.068 1.707-3.692 5.089-3.448z" class="cls-3"/>
        <path id="Trazado_3092" d="M185.228 256.5l-5.086 3.448-.154.334a6.8 6.8 0 0 0 .423 6.487l1.263 2 14.681-8.47z" class="cls-3"/>
        <g id="Grupo_604">
            <g id="Axonometric_Cylinder">
                <path id="Trazado_3093" d="M233.383 286.858a3.559 3.559 0 0 0-3.635-.338l-3.189 1.842 7.269 12.437 3.189-1.841a3.6 3.6 0 0 0 1.459-3.278 11.258 11.258 0 0 0-5.093-8.822z" class="cls-3"/>
                <path id="Cylinder_face" d="M235.287 297.521c0 3.248-2.28 4.565-5.093 2.941a11.259 11.259 0 0 1-5.094-8.822c0-3.249 2.281-4.565 5.094-2.941a11.258 11.258 0 0 1 5.093 8.822z" class="cls-4"/>
            </g>
            <g id="Grupo_603" class="cls-5">
                <path id="Trazado_3094" d="M230.184 298.777a7.732 7.732 0 0 1-3.57-6.042c-.034-2.265 1.51-3.231 3.448-2.159a7.731 7.731 0 0 1 3.57 6.043c.034 2.264-1.509 3.231-3.448 2.158z" class="cls-6"/>
                <path id="Trazado_3095" d="M230.176 298.2a6.648 6.648 0 0 1-3.07-5.2c-.029-1.947 1.3-2.778 2.965-1.856a6.647 6.647 0 0 1 3.069 5.2c.029 1.949-1.298 2.78-2.964 1.856z" class="cls-7"/>
                <g id="Grupo_602">
                    <path id="Trazado_3096" d="M230.324 296.569a3.759 3.759 0 0 1-1.735-2.936c-.016-1.1.734-1.57 1.676-1.049A3.758 3.758 0 0 1 232 295.52c.016 1.101-.734 1.57-1.676 1.049z" class="cls-6"/>
                    <path id="Trazado_3097" d="M232.173 293.585a4.524 4.524 0 0 0-1.654-1.755c-1.227-.679-2.2-.067-2.182 1.367a4.892 4.892 0 0 0 2.26 3.824c1.176.651 2.123.115 2.18-1.2v-.171a4.539 4.539 0 0 0-.604-2.065zm-.173 2.067c-.043 1.005-.77 1.417-1.674.917a3.759 3.759 0 0 1-1.735-2.936c-.016-1.1.734-1.57 1.676-1.049a3.481 3.481 0 0 1 1.27 1.348 3.945 3.945 0 0 1 .335.79 2.987 2.987 0 0 1 .13.8c-.002.043-.002.087-.002.13z" class="cls-8"/>
                </g>
            </g>
        </g>
        <g id="Grupo_607">
            <g id="Axonometric_Cylinder-2">
                <path id="Trazado_3098" d="M191.947 262.935a3.559 3.559 0 0 0-3.635-.338l-3.189 1.842 7.27 12.437 3.189-1.841a3.6 3.6 0 0 0 1.458-3.278 11.258 11.258 0 0 0-5.093-8.822z" class="cls-3"/>
                <path id="Cylinder_face-2" d="M193.851 273.6c0 3.248-2.28 4.565-5.093 2.941a11.259 11.259 0 0 1-5.094-8.822c0-3.249 2.281-4.565 5.094-2.941a11.258 11.258 0 0 1 5.093 8.822z" class="cls-4"/>
            </g>
            <g id="Grupo_606" class="cls-5">
                <path id="Trazado_3099" d="M188.749 274.854a7.733 7.733 0 0 1-3.571-6.042c-.034-2.265 1.51-3.231 3.448-2.159a7.734 7.734 0 0 1 3.574 6.047c.03 2.26-1.513 3.227-3.451 2.154z" class="cls-6"/>
                <path id="Trazado_3100" d="M188.74 274.279a6.648 6.648 0 0 1-3.07-5.195c-.029-1.947 1.3-2.778 2.965-1.856a6.647 6.647 0 0 1 3.069 5.2c.03 1.942-1.298 2.772-2.964 1.851z" class="cls-7"/>
                <g id="Grupo_605">
                    <path id="Trazado_3101" d="M188.889 272.646a3.755 3.755 0 0 1-1.735-2.936c-.017-1.1.733-1.57 1.675-1.049a3.755 3.755 0 0 1 1.735 2.936c.016 1.103-.734 1.57-1.675 1.049z" class="cls-6"/>
                    <path id="Trazado_3102" d="M190.737 269.662a4.517 4.517 0 0 0-1.654-1.755c-1.226-.679-2.2-.067-2.182 1.367a4.892 4.892 0 0 0 2.26 3.824c1.177.651 2.124.115 2.18-1.195v-.171a4.539 4.539 0 0 0-.604-2.07zm-.175 2.067c-.043 1.005-.77 1.417-1.673.917a3.755 3.755 0 0 1-1.735-2.936c-.017-1.1.733-1.57 1.675-1.049a3.481 3.481 0 0 1 1.27 1.348 3.944 3.944 0 0 1 .335.79 2.987 2.987 0 0 1 .13.8c.001.043 0 .087-.002.13z" class="cls-8"/>
                </g>
            </g>
        </g>
        <path id="Trazado_3103" d="M264.839 274.2a27.654 27.654 0 0 0-7.162-6.941c-7.035-4.7-9.974-7.3-16.353-12.734-2.217-1.89-6.234-5.73-8.573-7.466-.992-.737-24.927-15.507-30.469-13.33-2.487.977-17.1 8.553-18.9 10.4a2.463 2.463 0 0 0-.686 1.242c-.569 1.877-.947 4.69-1.536 5.455-.62-.023-.885-.568-1.236-.434a2.755 2.755 0 0 0-1.411 1.994 11.956 11.956 0 0 0-.2 2.183v8.76a3.978 3.978 0 0 0 .518 1.973 11.691 11.691 0 0 0 2.855 3.475c.022-5.163 1.691-8.38 6.668-5.506 4.713 2.721 6.669 8.084 6.669 13.306l28.544 16.248c.05-5.085 1.731-8.225 6.665-5.376 4.6 2.656 6.568 7.827 6.661 12.928a7.028 7.028 0 0 0 1.476.748 13.9 13.9 0 0 0 3.827 1.281c6.2 1.016 12.445-2.292 17.414-5.533 3.348-2.184 5.946-4.407 7.236-6.41a5.273 5.273 0 0 0 .8-2.971c-.057-2.752-.066-9.065-2.807-13.292z" class="cls-9"/>
        <path id="Trazado_3104" fill="url(#linear-gradient-2)" d="M251.552 301.153a18.041 18.041 0 0 1-9.362 1.247 13.9 13.9 0 0 1-3.827-1.281 7.028 7.028 0 0 1-1.476-.748 16.95 16.95 0 0 0-2.73-9.261c5.275 6.863 11.052 10.351 17.395 10.043zm-73.245-42.288v4.458a3.978 3.978 0 0 0 .518 1.973 11.691 11.691 0 0 0 2.855 3.475c.014-3.364.735-5.888 2.607-6.454zm13.971 8.067a17.079 17.079 0 0 1 2.739 9.639l28.544 16.248c.032-3.3.758-5.764 2.6-6.323z" opacity="0.3"/>
        <path id="Trazado_3105" fill="url(#linear-gradient-3)" d="M262.086 289.494c3.136-2.5 5.165-5.271 5.147-8.2a18.009 18.009 0 0 0-2.394-7.1 27.654 27.654 0 0 0-7.162-6.941c-7.036-4.7-9.974-7.3-16.353-12.734-2.217-1.89-6.234-5.73-8.573-7.466-.992-.737-24.927-15.507-30.469-13.33-2.391.939-16.3 8.164-18.654 10.17 7.071 2.771 27.957 12.6 30.158 15.276 2.536 3.077 11.132 16.666 11.132 16.666 2.965 3.019 9.972 8.988 13.044 11.89a16.252 16.252 0 0 1 2.966 6.189c.168.775 7.035 2.505 15.381-.995a24.525 24.525 0 0 0 5.777-3.425z" opacity="0.7"/>
        <path id="Trazado_3106" d="M231.622 247.1a.564.564 0 0 0-.132-.853c-5.173-3.207-24.327-14.439-29.208-12.522-2.391.939-16.3 8.164-18.654 10.17 5.908 2.315 21.452 9.557 27.69 13.435a2.374 2.374 0 0 0 2.154.191c3.537-1.437 14.239-6.021 18.15-10.421z" style="mix-blend-mode:screen;isolation:isolate" fill="url(#linear-gradient-4)" opacity="0.4"/>
        <path id="Trazado_3107" d="M239.159 288.866c13.917 2.961 27.656-9.244 26.175-13.828-.155-.289-.319-.571-.5-.843a27.654 27.654 0 0 0-7.162-6.941c-3.261-2.176-5.64-3.9-7.89-5.67-8.92 11.932-24.869 14.252-24.869 14.252 2.965 3.019 9.972 8.988 13.044 11.89a4.264 4.264 0 0 0 1.202 1.14z" style="mix-blend-mode:screen;isolation:isolate" fill="url(#linear-gradient-5)" opacity="0.6"/>
    </g>
    <path id="Trazado_3108" fill="#2e66b7" d="M227.177 280.837a.111.111 0 0 1 .018.059v5.48h-.216v-5.445l-13.242-20.042a8.575 8.575 0 0 0-2.775-2.638l-3.954-2.33a162.955 162.955 0 0 0-1.834 24.915l18.448 10.652c-.006.079-.014.157-.019.237l-18.59-10.733-10.048-5.8c0-.087-.011-.174-.018-.26l10.012 5.78a161.134 161.134 0 0 1 1.863-24.982.107.107 0 0 1 .061-.079.117.117 0 0 1 .1.006l4.088 2.409a8.764 8.764 0 0 1 2.846 2.706zm-37.116-28.2a.106.106 0 0 0-.074-.132.105.105 0 0 0-.133.073 89.744 89.744 0 0 0-1.413 10.744c.07.041.135.087.2.129a91.161 91.161 0 0 1 1.42-10.812z" transform="translate(-178.042 -233.505)" style="mix-blend-mode:multiply;isolation:isolate" opacity="0.2"/>
    <path id="Trazado_3109" d="M230.556 274.719c6.444-1.76 12.692-5.746 18.009-10.782a1.415 1.415 0 0 0-.059-2.092l-16.33-14.119c-3.742 3.412-9.868 6.8-17.637 10.183 3.877 6.614 8.437 12.911 11.948 15.985a3.862 3.862 0 0 0 4.069.825z" class="cls-15" transform="translate(-178.042 -233.505)"/>
    <path id="Trazado_3110" d="M227.453 272.17a4.719 4.719 0 0 1-.532-.03 4.791 4.791 0 0 1-3.012-2.022 131.988 131.988 0 0 1-8.028-10.93.615.615 0 0 1 .289-.874c7.25-3.217 12.483-6.216 15.935-9.134a.721.721 0 0 1 .94 0l12.731 11.07a1 1 0 0 1 .348.738.966.966 0 0 1-.3.734c-5.669 5.37-11.115 8.637-17.139 10.281a4.627 4.627 0 0 1-1.229.165z" class="cls-16" transform="translate(-178.042 -233.505)"/>
    <path id="Trazado_3111" d="M213.921 260.735a10.089 10.089 0 0 0-3.352-3.175c-5.467-3.173-19.167-10.212-22.658-11.112-.809-.209-2.72 2.5-3.922 6.4a.818.818 0 0 0 .355.937c4.283 2.633 33.373 18.267 37.731 20.643.268.146.617-.144.461-.4-1.244-2.094-6.218-9.659-8.615-13.293z" class="cls-15" transform="translate(-178.042 -233.505)"/>
    <path id="Trazado_3112" d="M180.957 251.718a.19.19 0 0 1-.268.107c-.48-.256-1.4-.8-1.2-1.248 0 0 3.011-6.063 3.687-6.234.869.5.495 1.074.024 1.874a15.584 15.584 0 0 0-1.049 2.218c-.561 1.513-1.021 2.798-1.194 3.283z" class="cls-16" transform="translate(-178.042 -233.505)"/>
    <path id="Trazado_3113" d="M250.549 289.578c-.722-.594-5.052-.666-11.865-2.922-1.105-.138-.522 2.566.135 3.764.283.519.593 1 .886 1.487a3.569 3.569 0 0 0 .719.5 4.289 4.289 0 0 0 1.089.3 24.492 24.492 0 0 0 9.5.012c.987-.347.18-2.61-.464-3.141z" class="cls-17" transform="translate(-178.042 -233.505)"/>
    <path id="Trazado_3114" d="M239.75 291.627c-.633-1.54-1.349-3.29-1.066-4.971-1-.241-1.91-.245-1.993.556-.148 1.436 2.07 4.019 3.311 4.929-.081-.174-.178-.335-.252-.514z" class="cls-18" transform="translate(-178.042 -233.505)"/>
    <path id="Trazado_3115" d="M265.043 276.819a8.128 8.128 0 0 0-.022-1.078 4.935 4.935 0 0 0-.809-2.453 10.093 10.093 0 0 1 1.667 2.532 7.7 7.7 0 0 1 .972 3.08c-.016 1.4-.3 2.532-.682 2.771-.235.147-.578-.449-.7-.7-.76-1.512-.479-2.63-.426-4.152z" class="cls-17" transform="translate(-178.042 -233.505)"/>
    <path id="Trazado_3116" d="M252.82 288.862c.307 1.006 1.338 3.376 2.008 3.234 2.99-.636 8.962-5 9.83-6.669.3-.585-.829-4.236-1.182-4.33a25.265 25.265 0 0 1-5.367 4.567c-2.691 1.676-5.422 2.761-5.289 3.198z" class="cls-9" transform="translate(-178.042 -233.505)"/>
    <path id="Trazado_3117" d="M258.109 285.664c-1.525.95-3.082 1.669-4.111 2.193-.786.4-1.262.653-1.178 1.005a7.624 7.624 0 0 0 1.635 3.086c3-.67 8.92-4.993 9.784-6.657.252-.485-.485-3.079-.945-4a25.177 25.177 0 0 1-5.185 4.373z" class="cls-16" transform="translate(-178.042 -233.505)"/>
    <path id="Trazado_3118" fill="#2e66b7" d="M240.114 281.458a54.952 54.952 0 0 1-6.969-5.831 14.791 14.791 0 0 0 1.574 2.143 25.91 25.91 0 0 0 4.674 4.186 28.638 28.638 0 0 0 6.023 3.25 19.126 19.126 0 0 0 3.173.96 31.239 31.239 0 0 1-2.865-1.3 45.758 45.758 0 0 1-5.61-3.408z" opacity="0.3" transform="translate(-178.042 -233.505)"/>
    <g id="Grupo_609" transform="translate(-178.042 -233.505)" style="mix-blend-mode:screen;isolation:isolate" opacity="0.6">
        <path id="Trazado_3119" fill="url(#linear-gradient-6)" d="M252.187 267.48a24.26 24.26 0 0 0-2.758-1.446 56.729 56.729 0 0 1 7.049 5.784 32.837 32.837 0 0 1 3.865 4.44 16.843 16.843 0 0 1 1.346 2.192 7.92 7.92 0 0 0-.82-2.347 18.223 18.223 0 0 0-3.567-4.7 28.309 28.309 0 0 0-5.115-3.923z"/>
    </g>
    <path id="Trazado_3120" d="M222.836 245.793l-11.3 6.527a2.68 2.68 0 0 1-2.423 0l-4.473-2.583a.738.738 0 0 1 0-1.4l11.3-6.526a2.671 2.671 0 0 1 2.422 0l4.474 2.583a.738.738 0 0 1 0 1.399z" class="cls-15" transform="translate(-178.042 -233.505)"/>
    <path id="Trazado_3121" d="M222.262 246.058l-10.785 6.227a2.529 2.529 0 0 1-2.286 0l-3.977-2.3a.7.7 0 0 1 0-1.319L216 242.442a2.527 2.527 0 0 1 2.285 0l3.978 2.3a.7.7 0 0 1-.001 1.316z" class="cls-16" transform="translate(-178.042 -233.505)"/>
    <path id="Trazado_3122" d="M189.741 256.2a47.244 47.244 0 0 1 1.782-7.56c3.987 1.723 10.385 4.968 15.016 7.477-.174 1.071-.642 4.156-1.059 8.69-5.698-3.09-11.713-6.367-15.739-8.607zm1.182-7.813a19.7 19.7 0 0 0-2.336-.857c-.427.005-2.1 2.046-3.259 5.811a.38.38 0 0 0 .165.435c.647.4 1.915 1.121 3.59 2.057a45.049 45.049 0 0 1 1.84-7.446zm25.435 22.3c2.1 1.137 3.752 2.027 4.672 2.526-1.468-2.395-6.019-9.312-7.978-12.282a9.235 9.235 0 0 0-3.052-2.886c-.791-.46-1.774-1.008-2.858-1.6-.192 1.217-.64 4.307-1.038 8.7 3.846 2.085 7.506 4.062 10.254 5.547z" class="cls-16" transform="translate(-178.042 -233.505)"/>
    <path id="Trazado_3123" d="M209.929 270.64l-2.761-1.594a.584.584 0 0 1-.282-.445v-.392c0-.156.126-.209.282-.119l2.761 1.594a.587.587 0 0 1 .283.446v.391c0 .156-.127.209-.283.119z" class="cls-22" transform="translate(-178.042 -233.505)"/>
    <path id="Trazado_3124" d="M193.424 261.111l-2.761-1.594a.584.584 0 0 1-.282-.446v-.391c0-.156.126-.21.282-.119l2.761 1.594a.586.586 0 0 1 .283.446v.391c0 .156-.127.208-.283.119z" class="cls-22" transform="translate(-178.042 -233.505)"/>
    <g id="Grupo_610" transform="translate(-178.042 -233.505)">
        <path id="Trazado_3125" d="M213.831 271.112a2.057 2.057 0 0 0 .7 2.449 1.428 1.428 0 0 0 .449.1c1.5.165 3.557.187 4.285-.646a.6.6 0 0 0 .1-.714c-.144-.452-.656-2.365-1.049-2.574a15.065 15.065 0 0 0-4.485 1.385z" class="cls-1"/>
        <path id="Trazado_3126" fill="url(#linear-gradient-7)" d="M218.948 270.96a2.859 2.859 0 0 0-.63-1.234 15.065 15.065 0 0 0-4.487 1.386.811.811 0 0 0-.165.421 10.515 10.515 0 0 0 5.282-.573z" opacity="0.7"/>
        <path id="Trazado_3127" d="M220.94 272.389c-.133-.016-1.426-.324-1.654-.355-.763-.105-1.828 1.255-1.512 1.632.083.1 3.385.312 3.489.319.531.039.388-1.511-.323-1.596z" class="cls-15"/>
    </g>
    <path id="Trazado_3128" d="M180.691 264.337l-.973-.562a.534.534 0 0 1-.257-.406v-.112c0-.142.115-.191.257-.109l.973.562a.533.533 0 0 1 .258.407v.111c0 .142-.115.191-.258.109z" class="cls-18" transform="translate(-178.042 -233.505)"/>
    <path id="Trazado_3129" d="M222.976 288.75l-.973-.562a.534.534 0 0 1-.257-.406v-.111c0-.143.115-.192.257-.109l.973.561a.537.537 0 0 1 .258.407v.111c0 .142-.116.191-.258.109z" class="cls-18" transform="translate(-178.042 -233.505)"/>
    <path id="Trazado_3130" fill="#911" d="M178.358 253.469a12.334 12.334 0 0 0-.034 5.485c.741.167 1.011-3 1.088-4.259a.873.873 0 0 0-.388-.78z" transform="translate(-178.042 -233.505)"/>
    <path id="Trazado_3131" d="M263.426 290.383l-5.745 3.852v2.065l5.745-3.852z" class="cls-6" transform="translate(-178.042 -233.505)"/>
</svg>
