<svg xmlns="http://www.w3.org/2000/svg" id="_10" width="66.875" height="69.338" viewBox="0 0 66.875 69.338">
    <defs>
        <style>
            .cls-1{fill:#3a3837}.cls-2{fill:#a0a0a0}.cls-3{fill:#3396b5}.cls-4{isolation:isolate}.cls-5{fill:#c1c1c1}.cls-6{fill:#8c7e64}.cls-7{fill:#7a684c}
        </style>
    </defs>
    <g id="Grupo_714" transform="translate(-37.873 -125.521)">
        <path id="Trazado_3233" d="M72.195 160.211l-2.415 1.394v.949l2.388 1.379 2.415-1.395v-.949z" class="cls-1"/>
        <g id="Grupo_643">
            <path id="Trazado_3234" d="M67.9 168.613a.3.3 0 0 1-.15-.56l2.972-1.716v-3.546a.3.3 0 0 1 .6 0v3.719a.3.3 0 0 1-.15.26l-3.122 1.8a.3.3 0 0 1-.15.043z" class="cls-2"/>
        </g>
        <g id="Grupo_711">
            <path id="Trazado_3235" d="M62.894 142.992l-10.611 12-.066-.57 17.829 12.664a.6.6 0 0 1-.695.978L51.759 155.05a.393.393 0 0 1-.082-.55l10.308-12.292a.6.6 0 1 1 .919.772z" class="cls-3"/>
            <g id="Grupo_684">
                <g id="Grupo_683" class="cls-4">
                    <path id="Trazado_3236" d="M40.4 143.7a7.045 7.045 0 0 1 2.916-3.912c-1.4-.157-3.192 1.446-4.072 4.672-.846 3.106-.236 7.423 1.37 11.562.16.412.368.9.547 1.305a28.907 28.907 0 0 0 4.686 7.294 22.828 22.828 0 0 0 2.14 2.075c3.728 3.3 8.64 6.19 12.472 2.55-9.338 5.162-23.769-14.264-20.059-25.546z" class="cls-5"/>
                    <g id="Grupo_682">
                        <g id="Grupo_662">
                            <g id="Grupo_652">
                                <g id="Grupo_644">
                                    <path id="Trazado_3237" d="M51.381 154.347a.078.078 0 0 1-.075-.056.079.079 0 0 1 .052-.1l9.443-2.834a.077.077 0 0 1 .1.053.078.078 0 0 1-.053.1l-9.448 2.834a.091.091 0 0 1-.019.003z" class="cls-2"/>
                                </g>
                                <g id="Grupo_645">
                                    <path id="Trazado_3238" d="M64.294 163.422c-.046-.015-12.43-8.8-12.43-8.8a.079.079 0 0 1-.019-.11.081.081 0 0 1 .111-.019l12.384 8.785a.079.079 0 0 1-.046.144z" class="cls-2"/>
                                </g>
                                <g id="Grupo_646">
                                    <path id="Trazado_3239" d="M60.382 170.521a.079.079 0 0 1-.07-.042l-8.072-15.258a.079.079 0 0 1 .14-.075l8.072 15.254a.08.08 0 0 1-.033.107.081.081 0 0 1-.037.014z" class="cls-2"/>
                                </g>
                                <g id="Grupo_647">
                                    <path id="Trazado_3240" d="M51.378 168.651a.079.079 0 0 1-.078-.085l.969-12.793a.079.079 0 1 1 .157.012l-.969 12.793a.079.079 0 0 1-.079.073z" class="cls-2"/>
                                </g>
                                <g id="Grupo_648">
                                    <path id="Trazado_3241" d="M42.558 158.909a.079.079 0 0 1-.023-.155l9.442-2.835a.078.078 0 0 1 .1.053.079.079 0 0 1-.053.1l-9.443 2.828a.065.065 0 0 1-.023.009z" class="cls-2"/>
                                </g>
                                <g id="Grupo_649">
                                    <path id="Trazado_3242" d="M51.472 155.785c-.046-.015-12.43-8.8-12.43-8.8a.079.079 0 1 1 .091-.129l12.385 8.785a.08.08 0 0 1 .019.111.082.082 0 0 1-.065.033z" class="cls-2"/>
                                </g>
                                <g id="Grupo_650">
                                    <path id="Trazado_3243" d="M51.072 155.159a.078.078 0 0 1-.07-.042l-8.072-15.259a.078.078 0 0 1 .033-.106.079.079 0 0 1 .107.032l8.072 15.258a.079.079 0 0 1-.033.107.074.074 0 0 1-.037.01z" class="cls-2"/>
                                </g>
                                <g id="Grupo_651">
                                    <path id="Trazado_3244" d="M51.034 154.564a.08.08 0 0 1-.078-.085l.969-12.794a.075.075 0 0 1 .085-.073.079.079 0 0 1 .073.084l-.97 12.794a.08.08 0 0 1-.079.074z" class="cls-2"/>
                                </g>
                            </g>
                            <g id="Grupo_661">
                                <g id="Grupo_653">
                                    <path id="Trazado_3245" d="M63.356 157.325c-.019 0-11.748-2.9-11.748-2.9a.078.078 0 0 1-.057-.1.08.08 0 0 1 .1-.057l11.73 2.9a.079.079 0 0 1-.02.156z" class="cls-2"/>
                                </g>
                                <g id="Grupo_654">
                                    <path id="Trazado_3246" d="M63.321 167.742a.08.08 0 0 1-.06-.027l-11.187-12.831a.079.079 0 0 1 .119-.1l11.187 12.827a.078.078 0 0 1-.059.131z" class="cls-2"/>
                                </g>
                                <g id="Grupo_655">
                                    <path id="Trazado_3247" d="M56.472 170.819a.079.079 0 0 1-.076-.059L52.3 155.514a.079.079 0 0 1 .153-.041l4.091 15.246a.078.078 0 0 1-.055.1.076.076 0 0 1-.017 0z" class="cls-2"/>
                                </g>
                                <g id="Grupo_656">
                                    <path id="Trazado_3248" d="M46.823 164.752c-.078-.034-.09-.083-.067-.12l5.4-8.731a.079.079 0 0 1 .135.083l-5.4 8.731a.08.08 0 0 1-.068.037z" class="cls-2"/>
                                </g>
                                <g id="Grupo_657">
                                    <path id="Trazado_3249" d="M51.755 156c-.019 0-11.749-2.9-11.749-2.9a.078.078 0 0 1-.057-.1.079.079 0 0 1 .095-.057l11.73 2.9a.081.081 0 0 1 .058.1.079.079 0 0 1-.077.057z" class="cls-2"/>
                                </g>
                                <g id="Grupo_658">
                                    <path id="Trazado_3250" d="M51.248 155.51a.079.079 0 0 1-.059-.027L40 142.652a.079.079 0 0 1 .119-.1l11.187 12.831a.079.079 0 0 1-.008.112.076.076 0 0 1-.05.015z" class="cls-2"/>
                                </g>
                                <g id="Grupo_659">
                                    <path id="Trazado_3251" d="M51 154.849a.079.079 0 0 1-.077-.058l-4.092-15.247a.08.08 0 0 1 .056-.1.08.08 0 0 1 .1.056l4.092 15.246a.079.079 0 0 1-.056.1z" class="cls-2"/>
                                </g>
                                <g id="Grupo_660">
                                    <path id="Trazado_3252" d="M51.159 154.4c-.079-.034-.091-.083-.068-.12l5.4-8.731a.079.079 0 0 1 .135.083l-5.4 8.731a.079.079 0 0 1-.067.037z" class="cls-2"/>
                                </g>
                            </g>
                        </g>
                        <g id="Grupo_681">
                            <g id="Grupo_671">
                                <g id="Grupo_663">
                                    <path id="Trazado_3253" d="M63.8 166.56a.079.079 0 0 1-.052-.02l-12.1-10.593a.079.079 0 0 1-.007-.112.078.078 0 0 1 .111-.007l12.1 10.593a.079.079 0 0 1-.052.139z" class="cls-2"/>
                                </g>
                                <g id="Grupo_664">
                                    <path id="Trazado_3254" d="M52.189 156.042a.079.079 0 0 1-.08-.075.081.081 0 0 1 .076-.083l10.539-.529a.084.084 0 0 1 .083.075.081.081 0 0 1-.075.083l-10.54.529z" class="cls-2"/>
                                </g>
                                <g id="Grupo_665">
                                    <path id="Trazado_3255" d="M52.383 155.631c-.061-.013-.087-.056-.076-.1l2.8-11.343a.079.079 0 0 1 .154.039l-2.8 11.342a.079.079 0 0 1-.078.062z" class="cls-2"/>
                                </g>
                                <g id="Grupo_666">
                                    <path id="Trazado_3256" d="M52.173 154.974a.079.079 0 0 1-.073-.049l-6.575-15.51a.079.079 0 1 1 .145-.062l6.576 15.511a.079.079 0 0 1-.042.1.07.07 0 0 1-.031.01z" class="cls-2"/>
                                </g>
                                <g id="Grupo_667">
                                    <path id="Trazado_3257" d="M51.68 154.455a.081.081 0 0 1-.052-.02l-12.1-10.593a.079.079 0 0 1 .1-.119l12.1 10.593a.079.079 0 0 1 .008.112.084.084 0 0 1-.056.027z" class="cls-2"/>
                                </g>
                                <g id="Grupo_668">
                                    <path id="Trazado_3258" d="M40.654 154.909a.079.079 0 0 1-.079-.076.078.078 0 0 1 .075-.082l10.54-.53a.085.085 0 0 1 .083.075.08.08 0 0 1-.075.083l-10.54.53z" class="cls-2"/>
                                </g>
                                <g id="Grupo_669">
                                    <path id="Trazado_3259" d="M48.195 166.132c-.061-.012-.087-.055-.076-.1l2.8-11.342a.079.079 0 0 1 .1-.058.081.081 0 0 1 .058.1l-2.8 11.342a.079.079 0 0 1-.082.058z" class="cls-2"/>
                                </g>
                                <g id="Grupo_670">
                                    <path id="Trazado_3260" d="M57.784 170.958a.079.079 0 0 1-.073-.048l-6.574-15.51a.079.079 0 0 1 .145-.061l6.575 15.511a.079.079 0 0 1-.042.1.069.069 0 0 1-.031.008z" class="cls-2"/>
                                </g>
                            </g>
                            <g id="Grupo_680">
                                <g id="Grupo_672">
                                    <path id="Trazado_3261" d="M64.247 161.819c-.034-.007-12.328-5.759-12.328-5.759a.079.079 0 1 1 .067-.143l12.294 5.751a.079.079 0 0 1-.033.151z" class="cls-2"/>
                                </g>
                                <g id="Grupo_673">
                                    <path id="Trazado_3262" d="M52.329 155.9a.078.078 0 0 1-.061-.028.079.079 0 0 1 .011-.112l7.433-6.125a.078.078 0 0 1 .111.011.079.079 0 0 1-.01.111l-7.434 6.125a.072.072 0 0 1-.05.018z" class="cls-2"/>
                                </g>
                                <g id="Grupo_674">
                                    <path id="Trazado_3263" d="M52.332 155.328a.079.079 0 0 1-.079-.069l-1.782-14.415a.081.081 0 0 1 .069-.089.074.074 0 0 1 .088.069l1.783 14.415a.081.081 0 0 1-.069.089z" class="cls-2"/>
                                </g>
                                <g id="Grupo_675">
                                    <path id="Trazado_3264" d="M51.959 154.688a.08.08 0 0 1-.065-.034L41.941 140.4a.081.081 0 0 1 .019-.111.082.082 0 0 1 .111.02l9.953 14.259a.079.079 0 0 1-.02.11.076.076 0 0 1-.045.01z" class="cls-2"/>
                                </g>
                                <g id="Grupo_676">
                                    <path id="Trazado_3265" d="M51.429 154.354C51.4 154.347 39.1 148.6 39.1 148.6a.079.079 0 0 1 .067-.144l12.296 5.744a.079.079 0 0 1-.034.151z" class="cls-2"/>
                                </g>
                                <g id="Grupo_677">
                                    <path id="Trazado_3266" d="M43.62 160.648a.078.078 0 0 1-.061-.029.08.08 0 0 1 .01-.112L51 154.382a.079.079 0 0 1 .112.011.078.078 0 0 1-.011.111l-7.433 6.125a.076.076 0 0 1-.048.019z" class="cls-2"/>
                                </g>
                                <g id="Grupo_678">
                                    <path id="Trazado_3267" d="M52.832 169.508a.079.079 0 0 1-.079-.069l-1.781-14.415a.079.079 0 1 1 .157-.02l1.782 14.415a.08.08 0 0 1-.069.088z" class="cls-2"/>
                                </g>
                                <g id="Grupo_679">
                                    <path id="Trazado_3268" d="M61.376 169.993a.08.08 0 0 1-.065-.034L51.358 155.7a.079.079 0 1 1 .13-.091l9.953 14.26a.079.079 0 0 1-.02.11.082.082 0 0 1-.045.014z" class="cls-2"/>
                                </g>
                            </g>
                        </g>
                    </g>
                    <path id="Trazado_3269" d="M62.284 154.046c-2.371-6.118-6.721-11.253-11.17-13.821a10.828 10.828 0 0 0-6.326-1.689c-2.983.256-5.019 2.192-5.92 5.492s-.442 7.454 1.268 11.861a29.529 29.529 0 0 0 7.742 11.343 16.839 16.839 0 0 0 3.361 2.423 10.837 10.837 0 0 0 6.346 1.672c6.16-.527 8.232-8.163 4.699-17.281zm.851 10.14a10.437 10.437 0 0 1-.285 1.214 7.593 7.593 0 0 1-3.037 4.225 6.046 6.046 0 0 1-2.554.783 10.466 10.466 0 0 1-6.036-1.611 19.371 19.371 0 0 1-3.139-2.292q-.576-.51-1.128-1.068c-.126-.127-.245-.265-.369-.395-.238-.252-.479-.5-.709-.765-.066-.075-.123-.148-.186-.223q-.36-.419-.7-.857c-.117-.149-.229-.3-.339-.441-.247-.327-.49-.657-.724-1l-.081-.115c-.271-.4-.531-.807-.783-1.22-.061-.1-.123-.2-.181-.3-.208-.35-.408-.707-.6-1.067-.094-.175-.184-.348-.272-.52-.2-.383-.39-.768-.569-1.159l-.046-.1c-.222-.489-.432-.984-.626-1.484-1.6-4.139-2.027-8.132-1.181-11.238a6.965 6.965 0 0 1 3.085-4.387c.091-.049.2-.1.305-.158a6.22 6.22 0 0 1 2.006-.6 7.506 7.506 0 0 1 1.634-.02 8.849 8.849 0 0 1 .98.148A15.27 15.27 0 0 1 54.071 143a23.273 23.273 0 0 1 1.884 1.795 29.7 29.7 0 0 1 5.78 9.2c.169.459.365 1.031.538 1.558a19.684 19.684 0 0 1 .866 8.607z" class="cls-2"/>
                    <path id="Trazado_3270" d="M62.852 153.9q-.261-.673-.552-1.333c-.109-.244-.219-.462-.329-.694-.081-.171-.16-.343-.244-.513-.317-.64-.632-1.224-.943-1.769-.089-.154-.177-.307-.268-.46-.369-.62-.725-1.174-1.064-1.67-.081-.118-.16-.235-.242-.352-.467-.661-.884-1.2-1.235-1.642-.057-.071-.113-.144-.171-.214l-.127-.159-.519-.608c-.158-.181-.325-.341-.486-.516-.2-.219-.405-.437-.612-.647-.312-.318-.63-.617-.95-.913-.2-.185-.4-.376-.6-.552-.356-.307-.716-.587-1.077-.864-.175-.134-.348-.28-.524-.406-.541-.389-1.085-.747-1.631-1.063a11.607 11.607 0 0 0-6.669-1.792 6.739 6.739 0 0 0-2.844.87l-.071.042-.357.231c-.106.073-.24.179-.343.256l-.326.279c-.1.088-.217.212-.31.3l-.127.141-.077.086-.089.1c-.086.1-.194.245-.277.35-.05.07-.076.109-.1.147l-.157.225c-.065.1-.141.228-.208.338l-.048.082-.211.393c-.054.108-.116.245-.171.365l-.025.053-.2.483c-.054.144-.119.338-.17.483l-.15.5c-.042.157-.091.367-.129.525-.018.082-.025.125-.034.168l-.075.368c-.029.165-.061.386-.088.551l-.01.087-.023.2-.033.28c-.017.172-.033.4-.047.576l-.007.158c0 .067-.006.133-.008.2l-.01.23c-.005.179 0 .418-.006.6l.007.247v.176l.005.185c.008.185.025.433.036.618l.03.337c0 .052.009.1.014.157l.012.133c.02.191.053.445.076.636l.062.41.025.164.01.07c.032.2.082.456.117.651l.093.449.047.223c.045.2.108.455.154.65l.119.45c.037.139.075.278.115.417.047.163.1.334.14.478l.138.432c.06.187.121.372.185.559l.13.371.175.469c.069.182.139.364.212.546l.143.356.291.678.127.282.179.39.321.664.076.149.048.094.213.413.35.647c.108.193.256.447.365.639l.379.628c.115.187.274.433.392.618l.405.608c.123.18.292.417.417.595l.43.584c.13.173.309.4.441.571.1.128.235.295.4.486l.058.072c.137.165.324.381.464.545l.474.529c.143.157.339.361.484.516l.494.5c.149.147.353.339.5.484l.512.467.173.151.174.149.173.146.174.144.174.141.08.064.094.075c.051.041.121.1.174.136a14.911 14.911 0 0 0 6.67 3.207l.1.017c.067.009.132.022.2.03l.054.008c.1.013.229.027.327.038l.323.027c.1.006.225.01.321.015h.318c.094 0 .22-.006.315-.009l.311-.02.3-.031.9-.172c.26-.068.6-.2.85-.283l.774-.381c4.146-2.413 5.193-9.395 2.13-17.295zm-5.409 17.19a10.9 10.9 0 0 1-6.276-1.675 26.588 26.588 0 0 1-3.28-2.393 29.184 29.184 0 0 1-7.618-11.148c-1.671-4.319-2.106-8.464-1.229-11.7s2.971-5.142 5.89-5.391a10.927 10.927 0 0 1 6.275 1.687c4.352 2.512 8.583 7.551 10.9 13.53 3.452 8.9 1.353 16.572-4.662 17.086z" class="cls-6"/>
                    <path id="Trazado_3271" d="M62.356 153.974c-2.37-6.118-6.7-11.274-11.149-13.842a11.16 11.16 0 0 0-6.419-1.726c-2.983.255-5.128 2.214-6.028 5.513s-.452 7.563 1.257 11.97a29.886 29.886 0 0 0 7.8 11.409 16.9 16.9 0 0 0 3.343 2.441 11.162 11.162 0 0 0 6.43 1.717c6.155-.525 8.299-8.364 4.766-17.482zm-4.913 17.112a10.9 10.9 0 0 1-6.276-1.675 26.588 26.588 0 0 1-3.28-2.393 29.184 29.184 0 0 1-7.618-11.148c-1.671-4.319-2.106-8.464-1.229-11.7s2.971-5.142 5.89-5.391a10.927 10.927 0 0 1 6.275 1.687c4.352 2.512 8.583 7.551 10.9 13.53 3.452 8.904 1.353 16.576-4.662 17.09z" class="cls-7"/>
                    <path id="Trazado_3272" d="M63.507 153.514c-4.012-10.03-13.878-19.165-21.1-15.294l-.652.379c5.408-1.685 10.977 1.369 15.159 6.131a31.708 31.708 0 0 1 5.167 8.043c3.651 8.267 2.62 14.978-1.365 18.419l.651-.378c5.477-3.181 4.288-11.328 2.14-17.3z" class="cls-6"/>
                </g>
                <path id="Trazado_3273" d="M51.787 153.6a.873.873 0 0 0-.9-.083l-.72.415a.887.887 0 0 0-.367.812 2.769 2.769 0 0 0 1.254 2.172.975.975 0 0 0 .768.12l.855-.457a.887.887 0 0 0 .359-.807 2.77 2.77 0 0 0-1.249-2.172z" class="cls-2"/>
            </g>
            <path id="Trazado_3274" d="M53.206 155.3c-1.2-2.716-4.321-3.658-4.321-1.317a4.323 4.323 0 0 0 .863 2.292c1.421 1.982 3.445 2.28 3.748.785a3.086 3.086 0 0 0-.29-1.76zm-.852-.878c.07.091.136.185.2.281.131.2.1.4-.054.4h-.28c-.221 0-.48-.367-.393-.556l.11-.239c.063-.127.271-.072.417.119zm-1.869-.95l.11.366c.087.289-.172.357-.393.1l-.279-.323c-.157-.181-.185-.415-.054-.465a1.035 1.035 0 0 1 .2-.051c.146-.014.354.172.416.378zm-1.218.732a1.478 1.478 0 0 1 .06-.434c.044-.149.245-.115.4.065l.283.326c.22.255.161.555-.089.454l-.64-.257c-.003-.046-.014-.099-.014-.149zm.4.7l.318.127c.25.1.42.491.256.592l-.209.128c-.117.072-.337-.065-.437-.275-.047-.1-.09-.2-.128-.3-.074-.205.027-.34.204-.268zm1 1.974c-.084-.072-.167-.148-.246-.228-.167-.168-.216-.411-.1-.483l.209-.129c.164-.1.482.2.482.454v.322c.008.186-.164.216-.338.068zm.281-2.962l-.113-.374c-.06-.2.05-.321.226-.235.047.023.095.048.143.076s.1.058.144.09a.485.485 0 0 1 .225.495l-.113.244c-.08.188-.418-.003-.505-.292zm.447 3.119v-.322c0-.255.319-.187.482.1l.209.369c.117.207.069.4-.1.37a1.732 1.732 0 0 1-.246-.057.556.556 0 0 1-.34-.456zm.984.073l-.209-.369c-.164-.29.006-.486.257-.3l.317.238c.177.134.278.385.2.5a.911.911 0 0 1-.128.153c-.093.105-.316-.011-.43-.218zm.754-.521l-.639-.482c-.251-.189-.31-.557-.089-.557h.282a.523.523 0 0 1 .4.4 2.343 2.343 0 0 1 .059.5c.009.052-.002.096-.006.143z" class="cls-2"/>
            <g id="Grupo_685">
                <path id="Trazado_3275" d="M68.277 169.286a.9.9 0 0 1-.876-.694l-6.807-29.075c-.113-.484 1.639-.894 1.753-.41l6.5 27.757 15.327-11.1a.9.9 0 0 1 1.055 1.458l-16.424 11.893a.9.9 0 0 1-.528.171z" class="cls-3"/>
            </g>
            <g id="Grupo_710">
                <g id="Grupo_686">
                    <path id="Trazado_3276" d="M85.324 160.657a1.2 1.2 0 0 1-1.179-.982l-2.024-10.946c-.12-.651 2.24-1.087 2.36-.436l2.019 10.946a1.2 1.2 0 0 1-.962 1.4 1.166 1.166 0 0 1-.214.018z" class="cls-3"/>
                </g>
                <path id="Trazado_3277" d="M87.927 158.671s.375 1.108.849 2.808 1.1 3.964 1.8 6.208 1.448 4.468 2.063 6.113 1.1 2.707 1.1 2.707a.4.4 0 0 1-.2.533.407.407 0 0 1-.521-.173s-.58-1.048-1.33-2.669-1.637-3.826-2.471-6.047-1.62-4.458-2.163-6.151-.811-2.854-.811-2.854a.878.878 0 0 1 1.688-.475z" class="cls-3"/>
                <g id="Grupo_709">
                    <g id="Grupo_707" class="cls-4">
                        <path id="Trazado_3278" d="M79.846 166.472a7.035 7.035 0 0 1 2.915-3.912c-1.4-.157-3.192 1.446-4.072 4.671-.846 3.107-.236 7.424 1.37 11.562.16.413.368.9.547 1.305a28.9 28.9 0 0 0 4.686 7.295 22.951 22.951 0 0 0 2.14 2.075c3.728 3.3 8.64 6.19 12.472 2.549-9.342 5.162-23.773-14.264-20.058-25.545z" class="cls-5"/>
                        <g id="Grupo_706">
                            <g id="Grupo_705">
                                <g id="Grupo_687">
                                    <path id="Trazado_3279" d="M91.551 191.69a.08.08 0 0 1-.079-.08v-14a.079.079 0 1 1 .158 0v14a.079.079 0 0 1-.079.08z" class="cls-2"/>
                                </g>
                                <g id="Grupo_688">
                                    <path id="Trazado_3280" d="M95.816 193.034a.078.078 0 0 1-.076-.058l-4.265-15.342a.078.078 0 0 1 .055-.1.077.077 0 0 1 .1.055l4.265 15.342a.079.079 0 0 1-.055.1.076.076 0 0 1-.024.003z" class="cls-2"/>
                                </g>
                                <g id="Grupo_689">
                                    <path id="Trazado_3281" d="M99.867 193.609a.079.079 0 0 1-.07-.042l-8.316-15.918a.08.08 0 0 1 .034-.107.081.081 0 0 1 .107.034l8.316 15.918a.081.081 0 0 1-.034.107.1.1 0 0 1-.037.008z" class="cls-2"/>
                                </g>
                                <g id="Grupo_690">
                                    <path id="Trazado_3282" d="M102.755 191.69a.079.079 0 0 1-.061-.03l-11.2-14a.079.079 0 1 1 .123-.1l11.2 14a.08.08 0 0 1-.062.129z" class="cls-2"/>
                                </g>
                                <g id="Grupo_691">
                                    <path id="Trazado_3283" d="M104.292 188.082a.079.079 0 0 1-.05-.018L91.5 177.674a.079.079 0 1 1 .1-.122l12.741 10.389a.078.078 0 0 1 .011.111.077.077 0 0 1-.06.03z" class="cls-2"/>
                                </g>
                                <g id="Grupo_692">
                                    <path id="Trazado_3284" d="M104.292 183.22c-.031-.006-12.772-5.535-12.772-5.535a.079.079 0 0 1 .063-.145l12.74 5.528a.08.08 0 0 1 .042.1.079.079 0 0 1-.073.052z" class="cls-2"/>
                                </g>
                                <g id="Grupo_693">
                                    <path id="Trazado_3285" d="M102.755 177.692h-11.2a.079.079 0 1 1 0-.158h11.2a.079.079 0 1 1 0 .158z" class="cls-2"/>
                                </g>
                                <g id="Grupo_694">
                                    <path id="Trazado_3286" d="M91.551 177.692a.079.079 0 0 1-.044-.145l8.316-5.528a.079.079 0 0 1 .088.132l-8.311 5.528a.078.078 0 0 1-.049.013z" class="cls-2"/>
                                </g>
                                <g id="Grupo_695">
                                    <path id="Trazado_3287" d="M91.551 177.692c-.071-.024-.09-.07-.072-.11l4.731-11.11a.079.079 0 1 1 .146.062l-4.732 11.11a.079.079 0 0 1-.073.048z" class="cls-2"/>
                                </g>
                                <g id="Grupo_696">
                                    <path id="Trazado_3288" d="M91.551 177.692a.08.08 0 0 1-.079-.079v-14.68a.079.079 0 0 1 .158 0v14.68a.079.079 0 0 1-.079.079z" class="cls-2"/>
                                </g>
                                <g id="Grupo_697">
                                    <path id="Trazado_3289" d="M91.551 177.692a.08.08 0 0 1-.076-.058l-4.425-15.917a.079.079 0 0 1 .153-.042l4.424 15.917a.078.078 0 0 1-.055.1z" class="cls-2"/>
                                </g>
                                <g id="Grupo_698">
                                    <path id="Trazado_3290" d="M91.551 177.692a.08.08 0 0 1-.07-.043l-8.316-15.917a.079.079 0 0 1 .141-.073l8.316 15.917a.079.079 0 0 1-.034.107.081.081 0 0 1-.037.009z" class="cls-2"/>
                                </g>
                                <g id="Grupo_699">
                                    <path id="Trazado_3291" d="M91.551 177.692a.076.076 0 0 1-.061-.03l-10.7-13.369a.079.079 0 0 1 .123-.1l10.7 13.369a.078.078 0 0 1-.012.11.079.079 0 0 1-.05.02z" class="cls-2"/>
                                </g>
                                <g id="Grupo_700">
                                    <path id="Trazado_3292" d="M91.551 177.692a.076.076 0 0 1-.049-.018l-12.288-10.02a.078.078 0 0 1-.011-.111.08.08 0 0 1 .111-.011l12.286 10.02a.079.079 0 0 1-.05.14z" class="cls-2"/>
                                </g>
                                <g id="Grupo_701">
                                    <path id="Trazado_3293" d="M91.551 177.692c-.031-.007-12.592-5.456-12.592-5.456a.08.08 0 0 1 .063-.146l12.561 5.45a.079.079 0 0 1-.032.152z" class="cls-2"/>
                                </g>
                                <g id="Grupo_702">
                                    <path id="Trazado_3294" d="M91.551 177.692h-11.2a.079.079 0 1 1 0-.158h11.2a.079.079 0 0 1 0 .158z" class="cls-2"/>
                                </g>
                                <g id="Grupo_703">
                                    <path id="Trazado_3295" d="M83.082 183.309a.078.078 0 0 1-.066-.035.08.08 0 0 1 .022-.11l8.469-5.617a.078.078 0 0 1 .11.022.08.08 0 0 1-.022.11l-8.469 5.621a.08.08 0 0 1-.044.009z" class="cls-2"/>
                                </g>
                                <g id="Grupo_704">
                                    <path id="Trazado_3296" d="M87.07 188.4c-.071-.023-.09-.069-.072-.11l4.481-10.706a.077.077 0 0 1 .1-.042.079.079 0 0 1 .042.1l-4.478 10.708a.079.079 0 0 1-.073.05z" class="cls-2"/>
                                </g>
                            </g>
                        </g>
                        <path id="Trazado_3297" d="M101.724 176.817C99.354 170.7 95 165.564 90.555 163a10.83 10.83 0 0 0-6.326-1.689c-2.983.256-5.02 2.192-5.921 5.491s-.441 7.455 1.268 11.861A29.516 29.516 0 0 0 87.319 190a16.822 16.822 0 0 0 3.361 2.423 10.84 10.84 0 0 0 6.345 1.672c6.16-.523 8.232-8.16 4.699-17.278zm.851 10.14a10.44 10.44 0 0 1-.285 1.214 7.6 7.6 0 0 1-3.037 4.225 6.046 6.046 0 0 1-2.554.783 10.484 10.484 0 0 1-6.036-1.611 19.43 19.43 0 0 1-3.139-2.292q-.576-.512-1.128-1.068c-.126-.127-.245-.265-.368-.4-.239-.251-.479-.5-.71-.764-.066-.076-.123-.148-.186-.223q-.359-.418-.7-.857c-.117-.149-.228-.295-.339-.442-.247-.326-.49-.656-.724-1l-.081-.115c-.271-.4-.531-.806-.783-1.22-.061-.1-.123-.2-.181-.3q-.312-.526-.6-1.067c-.094-.175-.184-.348-.272-.52-.2-.383-.39-.768-.569-1.159l-.046-.1c-.222-.489-.432-.984-.626-1.485-1.605-4.138-2.027-8.131-1.181-11.237a6.969 6.969 0 0 1 3.085-4.387c.091-.049.2-.1.306-.158a6.18 6.18 0 0 1 2-.6 7.44 7.44 0 0 1 1.634-.021 9.105 9.105 0 0 1 .98.149 15.257 15.257 0 0 1 6.478 3.464 23.429 23.429 0 0 1 1.883 1.795 29.718 29.718 0 0 1 5.781 9.2c.168.459.364 1.031.537 1.558a19.666 19.666 0 0 1 .866 8.606z" class="cls-2"/>
                        <path id="Trazado_3298" d="M102.293 176.667q-.263-.675-.553-1.333c-.109-.244-.219-.463-.329-.694-.081-.172-.16-.343-.244-.513-.317-.64-.631-1.225-.943-1.769-.089-.155-.177-.307-.268-.46-.369-.621-.725-1.175-1.064-1.67-.081-.118-.16-.235-.242-.352-.466-.661-.884-1.2-1.234-1.642-.058-.071-.114-.144-.172-.214-.041-.051-.088-.112-.127-.159l-.519-.608c-.156-.182-.325-.341-.486-.516-.2-.22-.4-.437-.611-.647-.313-.318-.63-.618-.951-.913-.2-.186-.4-.376-.605-.552-.355-.307-.715-.587-1.077-.864-.175-.134-.348-.28-.524-.407-.541-.388-1.084-.747-1.631-1.062a11.608 11.608 0 0 0-6.669-1.793 6.731 6.731 0 0 0-2.843.871l-.072.042-.357.231c-.105.073-.24.179-.343.255l-.325.279c-.1.089-.218.213-.311.3l-.126.141-.077.086-.09.1c-.086.1-.194.246-.277.351-.05.069-.076.109-.1.147l-.157.225c-.065.1-.141.227-.207.338l-.048.082-.211.393c-.055.108-.117.244-.172.365l-.025.053-.2.483c-.054.143-.119.338-.169.483l-.151.5c-.042.157-.09.367-.129.524-.018.083-.025.126-.034.169l-.074.368c-.03.165-.062.386-.088.551l-.01.086c-.009.065-.016.131-.024.2l-.033.28c-.017.172-.033.4-.047.576l-.007.158c0 .066-.006.132-.008.2l-.01.229v.6l.006.247v.175l.005.186c.008.185.025.433.036.618l.03.337.014.156.012.134c.02.191.054.445.077.636l.061.41.025.164.01.069c.032.2.082.456.117.652l.094.449.046.223c.045.2.108.455.154.65l.119.45c.037.139.075.278.115.417.047.163.1.334.14.477l.138.433c.06.186.121.372.186.558l.129.372.175.469c.069.182.139.364.212.546l.144.356.29.678.128.282.178.39.321.664.077.149.048.094.212.413.351.647c.107.193.255.447.365.638l.378.629c.116.187.275.433.392.618l.405.607c.123.18.292.417.418.6l.429.584c.13.173.309.4.441.571.1.128.236.295.4.486l.058.072c.137.165.325.381.464.544l.474.53c.143.157.339.361.484.515l.494.5c.15.147.353.339.5.484l.512.467.173.151.174.149.173.146.174.144.174.141.08.064.094.075.174.136a14.916 14.916 0 0 0 6.67 3.207l.1.017c.067.009.132.022.2.03l.053.008c.1.013.229.027.327.038l.323.027c.1.006.225.01.321.015h.318c.1 0 .22-.006.315-.009l.311-.02.3-.032.9-.171c.26-.068.6-.2.85-.283l.774-.381c4.147-2.41 5.194-9.391 2.132-17.296zm-5.41 17.189a10.887 10.887 0 0 1-6.276-1.674 26.694 26.694 0 0 1-3.28-2.393 29.184 29.184 0 0 1-7.618-11.148c-1.671-4.319-2.106-8.465-1.229-11.7s2.971-5.141 5.89-5.39a10.928 10.928 0 0 1 6.275 1.687c4.352 2.512 8.584 7.551 10.9 13.53 3.455 8.906 1.355 16.574-4.662 17.088z" class="cls-6"/>
                        <path id="Trazado_3299" d="M101.8 176.745c-2.37-6.118-6.7-11.274-11.148-13.842a11.154 11.154 0 0 0-6.419-1.726c-2.983.255-5.129 2.214-6.029 5.513s-.452 7.563 1.258 11.969a29.869 29.869 0 0 0 7.794 11.41 16.873 16.873 0 0 0 3.344 2.441 11.158 11.158 0 0 0 6.429 1.717c6.156-.527 8.3-8.364 4.771-17.482zm-4.913 17.111a10.887 10.887 0 0 1-6.276-1.674 26.694 26.694 0 0 1-3.28-2.393 29.184 29.184 0 0 1-7.618-11.148c-1.671-4.319-2.106-8.465-1.229-11.7s2.971-5.141 5.89-5.39a10.928 10.928 0 0 1 6.275 1.687c4.352 2.512 8.584 7.551 10.9 13.53 3.451 8.906 1.351 16.574-4.666 17.088z" class="cls-7"/>
                        <path id="Trazado_3300" d="M102.947 176.285c-4.012-10.03-13.878-19.165-21.1-15.294l-.651.379c5.407-1.685 10.976 1.368 15.158 6.13a31.732 31.732 0 0 1 5.167 8.044c3.652 8.267 2.62 14.977-1.365 18.419l.651-.379c5.477-3.184 4.293-11.327 2.14-17.299z" class="cls-6"/>
                    </g>
                    <g id="Grupo_708">
                        <path id="Trazado_3301" d="M93.025 175.855a.484.484 0 0 0-.5-.046l-.4.23a.494.494 0 0 0-.2.452 1.54 1.54 0 0 0 .7 1.207.541.541 0 0 0 .427.066l.475-.253a.494.494 0 0 0 .2-.449 1.54 1.54 0 0 0-.702-1.207z" class="cls-2"/>
                        <path id="Trazado_3302" d="M90.453 177.34a.484.484 0 0 0-.5-.046l-.4.23a.494.494 0 0 0-.2.452 1.54 1.54 0 0 0 .7 1.207.541.541 0 0 0 .427.066l.47-.249a.492.492 0 0 0 .2-.449 1.539 1.539 0 0 0-.697-1.211z" class="cls-2"/>
                        <path id="Trazado_3303" d="M92.344 176.638a.247.247 0 0 0-.254-.024l-1.8 1.039a.253.253 0 0 0-.1.232.79.79 0 0 0 .357.618.277.277 0 0 0 .218.034l1.839-1.051a.253.253 0 0 0 .1-.23.786.786 0 0 0-.36-.618z" class="cls-2"/>
                    </g>
                </g>
                <path id="Trazado_3304" d="M87.584 159.644L83.9 161.8l.413-1.012c.778 3.024 1.631 6.052 2.564 9.041a77.074 77.074 0 0 0 3.228 8.8.4.4 0 0 1-.72.36 78.016 78.016 0 0 1-3.733-8.739c-1.1-2.967-2.108-5.952-3.057-8.979a.857.857 0 0 1 .394-1l3.727-2.119a.864.864 0 0 1 .863 1.5z" class="cls-3"/>
            </g>
            <path id="Trazado_3305" d="M62.323 142.994l-11.388 12.774-.054-.563L68 168.284a.6.6 0 0 1-.729.954L50.4 155.82a.394.394 0 0 1-.063-.553l11.08-13.061a.6.6 0 1 1 .915.777z" class="cls-3"/>
            <path id="Trazado_3306" d="M83.138 152.486l-21.074-9.157a.6.6 0 0 1 .453-1.111L84 150.381a1.137 1.137 0 0 1-.807 2.125z" class="cls-3"/>
        </g>
        <path id="Trazado_3307" d="M67.833 165.342L51.9 153.3a2.51 2.51 0 0 0-2.461-.681 1.35 1.35 0 0 0-.7 1.366c0 1.25.709 2.448 2.166 3.658l16.325 14.016a.148.148 0 0 0 .211-.016.149.149 0 0 0-.016-.211L51.1 157.418c-1.387-1.152-2.06-2.274-2.06-3.43a1.1 1.1 0 0 1 .533-1.094 2.226 2.226 0 0 1 2.147.645l15.938 12.042a.15.15 0 1 0 .18-.239z" class="cls-1"/>
        <g id="Grupo_713">
            <path id="Trazado_3308" d="M70.286 168.345c-1.76-3.986-6.342-5.368-6.342-1.932a6.347 6.347 0 0 0 1.267 3.364c2.085 2.908 5.056 3.346 5.5 1.15a4.532 4.532 0 0 0-.425-2.582zm-1.251-1.288q.154.2.293.412c.192.3.151.591-.079.591h-.41c-.324 0-.7-.54-.577-.817l.162-.351c.091-.192.397-.116.611.165zm-2.742-1.4l.161.537c.128.425-.252.525-.576.151l-.41-.473c-.231-.267-.272-.61-.079-.682a1.374 1.374 0 0 1 .292-.075c.219-.027.519.245.612.547zm-1.793 1.079a2.189 2.189 0 0 1 .088-.637c.065-.218.36-.168.589.1l.414.479c.324.374.238.813-.13.666l-.939-.377c-.001-.079-.022-.157-.022-.231zm.594 1.026l.465.187c.368.147.617.721.377.869l-.307.188c-.171.1-.494-.1-.641-.4q-.1-.219-.187-.44c-.11-.31.037-.509.299-.404zm1.471 2.9q-.186-.159-.361-.335c-.246-.247-.317-.6-.145-.709l.307-.189c.24-.147.707.292.707.666v.472c.005.263-.248.31-.503.093zm.412-4.348l-.165-.549c-.089-.294.073-.47.331-.344.069.033.139.07.21.112s.142.085.211.131a.71.71 0 0 1 .331.726l-.165.359c-.123.275-.62-.012-.748-.437zm.657 4.577v-.472c0-.374.467-.274.707.151l.307.542c.171.3.1.579-.146.542a2.535 2.535 0 0 1-.36-.082.819.819 0 0 1-.503-.683zm1.443.107l-.306-.541c-.24-.425.008-.712.376-.435l.466.351c.26.2.407.565.293.737a1.24 1.24 0 0 1-.188.224c-.141.137-.464-.034-.636-.334zm1.107-.764l-.938-.707c-.369-.278-.455-.817-.131-.817h.415a.768.768 0 0 1 .589.584 3.435 3.435 0 0 1 .087.739c.005.067-.011.13-.017.199z" class="cls-1"/>
            <g id="Grupo_712">
                <path id="Trazado_3309" d="M65.607 173.6a.3.3 0 0 1-.3-.3v-3.023a1.509 1.509 0 0 1 .753-1.305l1.145-.661a.3.3 0 1 1 .3.519l-1.145.661a.911.911 0 0 0-.454.786v3.023a.3.3 0 0 1-.299.3z" class="cls-2"/>
            </g>
            <path id="Trazado_3310" d="M64.468 172.32l-2.415 1.395v.949l2.388 1.379 2.415-1.395v-.948z" class="cls-1"/>
        </g>
    </g>
    <g id="Grupo_715" transform="translate(-37.873 -125.521)">
        <path id="Trazado_3311" d="M82.349 148.21l-1.06-5.735a.9.9 0 0 1 1.334-.943l5.912 3.412c.431.249.058.5-.19.929a.9.9 0 0 1-1.23.33l-3.7-2.138.7 3.817c.094.49-1.687.761-1.766.328z" class="cls-5"/>
    </g>
    <g id="Grupo_716" transform="translate(-37.873 -125.521)">
        <path id="Trazado_3312" d="M82.677 160.336a4.866 4.866 0 0 1-2.219-.61.7.7 0 1 1 .648-1.244c1.127.586 2.093.6 2.584.032a2.419 2.419 0 0 0 .353-1.921 7.364 7.364 0 0 0-3.375-4.656l-1.3-.751a.7.7 0 0 1 0-1.214l15.043-8.685a1.273 1.273 0 0 1 1.272 0l1.014.586a8.653 8.653 0 0 1 4.062 5.669 3.7 3.7 0 0 1-.681 3.04c-.946 1.089-2.551 1.2-4.293.295a.7.7 0 0 1 .648-1.245c1.128.587 2.093.6 2.584.032a2.419 2.419 0 0 0 .354-1.921A7.371 7.371 0 0 0 96 143.087l-.949-.547-13.926 8.039.248.144a8.659 8.659 0 0 1 4.062 5.669 3.712 3.712 0 0 1-.682 3.04 2.651 2.651 0 0 1-2.076.904z" class="cls-5"/>
    </g>
    <g id="Grupo_717" transform="translate(-37.873 -125.521)">
        <path id="Trazado_3313" d="M60.9 139.335l-2.079-8.882a.6.6 0 1 1 1.168-.274l2.079 8.882c.073.323-1.106.55-1.168.274z" class="cls-5"/>
    </g>
    <g id="Grupo_718" transform="translate(-37.873 -125.521)">
        <path id="Trazado_3314" d="M82.677 160.455a4.956 4.956 0 0 1-2.275-.622.823.823 0 0 1 .38-1.552.831.831 0 0 1 .38.094 3.368 3.368 0 0 0 1.5.435 1.182 1.182 0 0 0 .938-.375 2.3 2.3 0 0 0 .325-1.825 7.225 7.225 0 0 0-3.316-4.569c-.615-.355.528-1.591 1-1.314a8.556 8.556 0 0 1 3.939 5.648 3.832 3.832 0 0 1-.71 3.136 2.77 2.77 0 0 1-2.161.944z" class="cls-1"/>
        <path id="Trazado_3315" d="M100.878 147.525a8.78 8.78 0 0 0-4.12-5.757c-.662-.38-1.787.865-.821 1.423a7.238 7.238 0 0 1 3.316 4.569 2.306 2.306 0 0 1-.325 1.825c-.451.521-1.363.5-2.438-.06a.82.82 0 0 0-1.108.351.822.822 0 0 0 .349 1.107 5 5 0 0 0 2.275.623 2.768 2.768 0 0 0 2.163-.945 3.825 3.825 0 0 0 .709-3.136z" class="cls-1"/>
    </g>
    <path id="Trazado_3316" d="M55.429 131.7c5.193 1.086 5.721 1.29 7.651 2.379 1.851 1.045 3.962.563 2.219-1.679a15.5 15.5 0 0 0-2.541-1.843 29.037 29.037 0 0 1-3.364-3.817 3.517 3.517 0 0 0-2.405-1.194c-4.57-.475-6.045 5.221-1.56 6.154z" class="cls-1" transform="translate(-37.873 -125.521)"/>
    <path id="Trazado_3317" fill="#c1c1c1" d="M88.352 145a62.153 62.153 0 0 0-6.116-3.3 54.378 54.378 0 0 0 5.713 3.53l-.457.263a62.693 62.693 0 0 0-6.131 3.772 70.843 70.843 0 0 0 6.533-3.54 62.693 62.693 0 0 0 6.131-3.772A58.986 58.986 0 0 0 88.352 145z" transform="translate(-37.873 -125.521)" style="mix-blend-mode:screen;isolation:isolate" opacity="0.6"/>
</svg>
