<svg xmlns="http://www.w3.org/2000/svg" width="120" height="99.1" viewBox="0 0 120 99.1">
    <path fill="none" d="M0 0h65.217v65.217H0z" transform="translate(31.304 31.273)"/>
    <path fill="#e9e9e9" d="M105.636 62.46v14.865H122v9.91h-16.364V102.1H94.727V87.235H78.364v-9.91h16.363V62.46zM105.68 3a5.184 5.184 0 0 1 5.411 4.92v46.324a35.656 35.656 0 0 0-10.909-1.695V12.91H12.909l.005 69.37L63.6 36.233a5.862 5.862 0 0 1 7.2-.416l.507.421 19.342 17.59a32.136 32.136 0 0 0-19.686 15.046 27.284 27.284 0 0 0-1.643 23.321H7.411A5.186 5.186 0 0 1 2 87.269V7.92A5.222 5.222 0 0 1 7.411 3h98.269zM34.727 22.82c6.025 0 10.909 4.437 10.909 9.91s-4.884 9.91-10.909 9.91-10.909-4.44-10.909-9.91 4.882-9.91 10.909-9.91z" transform="translate(-2 -3)"/>
</svg>
