<svg xmlns="http://www.w3.org/2000/svg" id="_9" width="108.836" height="103.056" viewBox="0 0 108.836 103.056">
    <defs>
        <linearGradient id="linear-gradient" x1=".416" x2=".461" y1=".5" y2=".5" gradientUnits="objectBoundingBox">
            <stop offset="0" stop-color="#c9c6c3"/>
            <stop offset="1" stop-color="#dddbd8"/>
        </linearGradient>
        <style>
            .cls-1{fill:#26231f}.cls-3{fill:#3f3932}.cls-4{isolation:isolate}.cls-5,.cls-7{fill:#a8a8a8}.cls-6{fill:#848381}.cls-7{opacity:.3}.cls-8{fill:#c9c6c3}.cls-9{fill:#dddbd8}.cls-10{fill:#e9e6e3}.cls-12{fill:#282523}.cls-13{fill:#454545}.cls-15{fill:#b0adaa}.cls-18{fill:#f1eeec}.cls-21{fill:#f0fdff}.cls-22{fill:#e9751c}.cls-23{fill:#2c2927}
        </style>
    </defs>
    <g id="Axonometric_Cube" transform="translate(-174.543 -318.688)">
        <path id="Cube_face_-_left" d="M245.539 411.8l-64.575-37.282v-6.833l64.575 37.282z" class="cls-1"/>
        <path id="Cube_face_-_right" fill="#898783" d="M258.242 404.467l-12.7 7.334v-6.833l12.7-7.334z"/>
        <path id="Cube_face_-_top" d="M245.539 404.968l-64.575-37.282 12.7-7.334 64.575 37.282z" class="cls-3"/>
    </g>
    <g id="Grupo_623" transform="translate(-174.543 -318.688)">
        <g id="Axonometric_Cylinder">
            <path id="Trazado_3182" d="M192.2 374.253a3.551 3.551 0 0 0-3.627-.337l-3.182 1.837 7.253 12.409 3.182-1.837a3.593 3.593 0 0 0 1.456-3.27 11.234 11.234 0 0 0-5.082-8.802z" class="cls-1"/>
            <path id="Cylinder_face" d="M194.1 384.892c0 3.241-2.276 4.554-5.082 2.934a11.234 11.234 0 0 1-5.082-8.8c0-3.241 2.275-4.555 5.082-2.934a11.234 11.234 0 0 1 5.082 8.8z" class="cls-3"/>
        </g>
        <g id="Grupo_622" class="cls-4">
            <path id="Trazado_3183" d="M189.012 386.145a7.714 7.714 0 0 1-3.563-6.029c-.034-2.259 1.507-3.223 3.44-2.153a7.714 7.714 0 0 1 3.563 6.028c.033 2.26-1.507 3.224-3.44 2.154z" class="cls-5"/>
            <path id="Trazado_3184" d="M189 385.571a6.63 6.63 0 0 1-3.063-5.183c-.029-1.943 1.295-2.772 2.958-1.852a6.634 6.634 0 0 1 3.063 5.183c.032 1.943-1.292 2.772-2.958 1.852z" class="cls-6"/>
            <g id="Grupo_621">
                <path id="Trazado_3185" d="M189.151 383.942a3.751 3.751 0 0 1-1.731-2.929c-.016-1.1.732-1.567 1.672-1.047a3.753 3.753 0 0 1 1.731 2.93c.016 1.097-.732 1.566-1.672 1.046z" class="cls-5"/>
                <path id="Trazado_3186" d="M191 380.965a4.513 4.513 0 0 0-1.651-1.751c-1.223-.677-2.2-.067-2.177 1.363a4.882 4.882 0 0 0 2.255 3.816c1.174.649 2.119.114 2.175-1.193v-.17a4.529 4.529 0 0 0-.602-2.065zm-.175 2.061c-.043 1-.769 1.415-1.67.916a3.751 3.751 0 0 1-1.731-2.929c-.016-1.1.732-1.567 1.672-1.047a3.469 3.469 0 0 1 1.267 1.344 4.015 4.015 0 0 1 .334.789 2.98 2.98 0 0 1 .13.8c-.004.041-.004.085-.006.127z" class="cls-7"/>
            </g>
        </g>
    </g>
    <g id="Grupo_626" transform="translate(-174.543 -318.688)">
        <g id="Axonometric_Cylinder-2">
            <path id="Trazado_3187" d="M203.253 380.633a3.549 3.549 0 0 0-3.626-.337l-3.182 1.837 7.253 12.409 3.182-1.837a3.593 3.593 0 0 0 1.455-3.27 11.231 11.231 0 0 0-5.082-8.802z" class="cls-1"/>
            <ellipse id="Cylinder_face-2" cx="4.149" cy="7.187" class="cls-3" rx="4.149" ry="7.187" transform="rotate(-29.999 813.372 -167.847)"/>
        </g>
        <g id="Grupo_625" class="cls-4">
            <path id="Trazado_3188" d="M200.062 392.525a7.716 7.716 0 0 1-3.562-6.025c-.034-2.259 1.506-3.223 3.44-2.153a7.711 7.711 0 0 1 3.562 6.028c.034 2.256-1.502 3.225-3.44 2.15z" class="cls-5"/>
            <path id="Trazado_3189" d="M200.054 391.951a6.63 6.63 0 0 1-3.063-5.183c-.029-1.942 1.295-2.772 2.958-1.852a6.634 6.634 0 0 1 3.062 5.184c.029 1.942-1.295 2.771-2.957 1.851z" class="cls-6"/>
            <g id="Grupo_624">
                <path id="Trazado_3190" d="M200.2 390.322a3.746 3.746 0 0 1-1.731-2.929c-.017-1.1.732-1.567 1.671-1.047a3.747 3.747 0 0 1 1.731 2.93c.019 1.097-.73 1.566-1.671 1.046z" class="cls-5"/>
                <path id="Trazado_3191" d="M202.046 387.345a4.51 4.51 0 0 0-1.65-1.751c-1.224-.677-2.2-.067-2.177 1.363a4.883 4.883 0 0 0 2.254 3.816c1.175.65 2.119.115 2.176-1.192v-.171a4.518 4.518 0 0 0-.603-2.065zm-.174 2.062c-.044 1-.769 1.414-1.67.915a3.746 3.746 0 0 1-1.731-2.929c-.017-1.1.732-1.567 1.671-1.047a3.465 3.465 0 0 1 1.267 1.345 3.927 3.927 0 0 1 .335.788 2.939 2.939 0 0 1 .129.8c.001.041.001.085-.001.128z" class="cls-7"/>
            </g>
        </g>
    </g>
    <g id="Axonometric_Cube-2" transform="translate(-174.543 -318.688)">
        <path id="Cube_face_-_left-2" d="M234.524 401.81l-59.981-34.63v-31.515l59.981 34.63z" class="cls-8"/>
        <path id="Cube_face_-_right-2" d="M263.928 384.833l-29.4 16.976v-31.514l29.4-16.976z" class="cls-9"/>
        <path id="Cube_face_-_top-2" d="M234.524 370.295l-59.981-34.63 29.4-16.976 59.981 34.63z" class="cls-10"/>
    </g>
    <g id="Grupo_627" class="cls-4" transform="translate(-174.543 -318.688)">
        <path id="Trazado_3192" d="M282.885 379.754a.3.3 0 0 0-.3.03l-1.238.715a.922.922 0 0 0-.421.724v4.553a.3.3 0 0 0 .123.271l.369.215 1.835-6.293z" class="cls-8"/>
        <path id="Trazado_3193" d="M283.375 380.235c0-.267-.192-.37-.424-.236l-1.238.715a.92.92 0 0 0-.422.724v4.553c0 .267.192.376.425.242l1.237-.715a.931.931 0 0 0 .422-.73z" class="cls-9"/>
    </g>
    <g id="Grupo_640" transform="translate(-174.543 -318.688)">
        <g id="Grupo_633">
            <path id="Trazado_3194" fill="url(#linear-gradient)" d="M264.143 364.942l-22.849 13.192a1.769 1.769 0 0 0-.884 1.531v25.113l9.538 6.031.135 6.056 8.114 4.685a1.454 1.454 0 0 0 1.452 0l22.582-13.038a1.451 1.451 0 0 0 .727-1.258v-14.6a1.006 1.006 0 0 0-.236-.647l-.387-.462-.588-13.15c0-.007.2-.143.229-.172a.2.2 0 0 0 .045-.149v-2.92a1.7 1.7 0 0 0-.851-1.475l-15.133-8.737a1.9 1.9 0 0 0-1.894 0z"/>
            <path id="Trazado_3195" d="M240.932 378.412l16.132 9.315a1.842 1.842 0 0 0 1.842 0l22.957-13.255a1.689 1.689 0 0 0-.693-.793l-15.133-8.737a1.9 1.9 0 0 0-1.894 0l-22.849 13.192a1.8 1.8 0 0 0-.362.278z" class="cls-10"/>
            <path id="Trazado_3196" d="M282.635 391.931l-.888-13.536-22.865 13.2a1.211 1.211 0 0 1-1.213 0l-.3-.172a.323.323 0 0 0-.484.279l1.051 13.4a.8.8 0 0 0 .381.618l.2.121a.8.8 0 0 0 .811.008l22.948-13.249a.721.721 0 0 0 .359-.669z" class="cls-12"/>
            <path id="Trazado_3197" d="M248.423 386.257a.322.322 0 0 0-.483.279v7.027a1.606 1.606 0 0 0 .67 1.306l7.272 5.05a.238.238 0 0 0 .377-.194l-.648-8.991a.577.577 0 0 0-.288-.5z" class="cls-12"/>
            <path id="Trazado_3198" d="M248.752 394.216a1.364 1.364 0 0 1-.563-1.1v-6.327a.074.074 0 0 1 .073-.074l6.938 3.985a.326.326 0 0 1 .164.282l.537 8.155z" class="cls-13"/>
            <path id="Trazado_3199" d="M281.682 379.09l-22.851 13.193a.494.494 0 0 0-.245.464l.8 10.668a.531.531 0 0 0 .8.42l22.075-12.745a.589.589 0 0 0 .293-.547l-.761-11.4a.068.068 0 0 0-.111-.053z" class="cls-13"/>
            <g id="Grupo_628">
                <path id="Trazado_3200" d="M276.491 407.063l-9.831 5.676-1.617-8.985 13.064-7.542z" class="cls-12"/>
            </g>
            <path id="Trazado_3201" fill="#454545" d="M276.878 404.466l-.1.668-10.406 6.008-.1-.554zm-10.315 7.734l10.024-5.788.1-.669-10.223 5.9zm-.763-4.243l11.551-6.669.1-.668-11.75 6.783zm.282 1.568l.1.554 10.787-6.229.1-.669zm-.763-4.243l.1.554 12.314-7.109.1-.669zm.572 3.182l.1.554 11.169-6.448.1-.669zm-.763-4.242l.1.553 12.7-7.329.1-.669zm.382 2.121l.1.554 11.932-6.889.1-.669z" opacity="0.3"/>
            <path id="Trazado_3202" d="M237.978 406.385l3.825-2.215 3.246 3.64-7.087 4.1z" class="cls-15"/>
            <g id="Grupo_630">
                <g id="Axonometric_Cylinder-3">
                    <path id="Trazado_3203" d="M243.142 405.389l-3.178 1.835 7.245 12.394 3.178-1.835c.374-.224.263-4.1-1.136-6.641-1.963-3.572-5.571-6.075-6.109-5.753z" class="cls-1"/>
                    <path id="Cylinder_face-3" d="M248.662 416.352c0 3.236-2.272 4.549-5.075 2.93a11.216 11.216 0 0 1-5.076-8.792c0-3.236 2.272-4.548 5.076-2.93a11.221 11.221 0 0 1 5.075 8.792z" class="cls-3"/>
                </g>
                <g id="Grupo_629" class="cls-4">
                    <path id="Trazado_3204" d="M243.58 417.8a8.068 8.068 0 0 1-3.726-6.3c-.035-2.364 1.576-3.372 3.6-2.253a8.065 8.065 0 0 1 3.726 6.3c.034 2.36-1.58 3.368-3.6 2.253z" class="cls-5"/>
                    <path id="Trazado_3205" d="M243.189 416.523a5.267 5.267 0 0 1-2.433-4.117c-.023-1.544 1.029-2.2 2.349-1.471a5.267 5.267 0 0 1 2.433 4.117c.023 1.548-1.029 2.202-2.349 1.471z" class="cls-5"/>
                    <path id="Trazado_3206" fill="#bebebe" d="M246.628 415.481v-.24a6.867 6.867 0 0 0-3.169-5.363c-1.72-.952-3.091-.1-3.061 1.915a6.862 6.862 0 0 0 3.17 5.364c1.653.913 2.981.161 3.06-1.676zm-3.439 1.042a5.267 5.267 0 0 1-2.433-4.117c-.023-1.544 1.029-2.2 2.349-1.471a5.266 5.266 0 0 1 2.433 4.117v.184c-.063 1.411-1.082 1.988-2.349 1.287z"/>
                    <path id="Trazado_3207" fill="#e4e4e4" d="M245.781 412.339l-.9.485a4.888 4.888 0 0 1 .652 2.228v.184l1.092.245v-.24a6.355 6.355 0 0 0-.85-2.9z"/>
                </g>
            </g>
            <g id="Grupo_631">
                <path id="Trazado_3208" d="M237.39 405.764l1.759-1.022 3.663-.942-1.759 1.022z" class="cls-9"/>
                <path id="Trazado_3209" d="M241.052 404.822l1.759-1.022 5.178 2.99-1.759 1.022z" class="cls-10"/>
                <path id="Trazado_3210" d="M249.881 412.976l1.759-1.022-.017 5.8-1.759 1.022z" class="cls-9"/>
                <path id="Trazado_3211" d="M246.231 407.812l1.759-1.022 3.651 5.164-1.759 1.022z" class="cls-18"/>
                <path id="Trazado_3212" d="M246.231 407.812l3.651 5.164-.016 5.8-.59-.34.016-5.523-3.307-4.568-4.69-2.708-3.316.744-.016 5.523-.59-.34.016-5.8 3.663-.942z" class="cls-8"/>
            </g>
            <g id="Grupo_632">
                <path id="Trazado_3213" d="M257.312 412.949c-.042-.011-5.573-3.205-5.573-3.205-.027-.025-3.416-4.874-3.416-4.874l-1.178-.727a.085.085 0 0 1-.039-.071V385a.083.083 0 0 1 .125-.072l9.142 5.3a.083.083 0 0 1 .041.068l.981 15.545v7.024a.083.083 0 0 1-.042.072.084.084 0 0 1-.041.012zm-5.474-3.34l5.391 3.113v-6.875l-.978-15.5-8.979-5.206v18.881l1.153.711c.024.027 3.413 4.876 3.413 4.876z" class="cls-15"/>
            </g>
            <path id="Trazado_3214" d="M257.225 414.861l-4.892-2.824v5.206l4.892 2.824z" class="cls-15"/>
            <path id="Trazado_3215" fill="#c9c6c3" d="M252.333 412.037v5.206l1.407-.812v-3.581z" opacity="0.4"/>
            <path id="Trazado_3216" d="M253.741 416.431l-1.407.813 4.892 2.824v-1.625z" class="cls-13"/>
            <path id="Trazado_3217" d="M248.879 399.777l-.433-.25a.952.952 0 0 1-.46-.724v-2.655c0-.253.206-.34.46-.194l.433.25a.953.953 0 0 1 .459.725v2.654c0 .254-.205.341-.459.194z" class="cls-9"/>
            <path id="Trazado_3218" d="M248.68 396.421v2.911c.207.119.375.048.375-.158v-2.163a.775.775 0 0 0-.375-.59z" class="cls-15"/>
        </g>
        <path id="Trazado_3219" fill="#b0adaa" d="M282.521 400.892l-4.644 3.014-.617 3.9-11.182 6.456-.759-3.124-5.011 2.56 4.792-2.098.75 3.155 11.722-6.768.57-3.915z" opacity="0.6"/>
        <g id="Grupo_634">
            <path id="Trazado_3220" d="M282.067 404.344l-3.02 2.785c-.22.2-.442.138-.442-.131v-1.978a.777.777 0 0 1 .3-.569l3.02-2.232c.207-.153.392-.072.392.172v1.426a.78.78 0 0 1-.25.527z" class="cls-21"/>
            <path id="Trazado_3221" d="M281.922 402.219l.145 2.125a.78.78 0 0 0 .247-.527v-1.426c0-.244-.185-.325-.392-.172z" class="cls-22"/>
        </g>
        <g id="Grupo_635">
            <path id="Trazado_3222" d="M261.259 416.358l3.02-.7a.717.717 0 0 0 .441-.64v-1.978c0-.2-.126-.3-.3-.227l-3.02 1.255a.746.746 0 0 0-.392.624v1.426c.004.175.105.273.251.24z" class="cls-21"/>
            <path id="Trazado_3223" d="M261.4 414.065l-.145 2.293c-.146.033-.247-.065-.247-.243v-1.426a.746.746 0 0 1 .392-.624z" class="cls-22"/>
        </g>
        <g id="Grupo_639" class="cls-4">
            <g id="Grupo_636">
                <path id="Trazado_3224" d="M246.015 373.493l16.214-9.4 7.167 4.138-16.214 9.4z" class="cls-10"/>
            </g>
            <g id="Grupo_637">
                <path id="Trazado_3225" d="M253.182 377.631l16.214-9.4 2.629 4.078-16.214 9.4z" class="cls-18"/>
            </g>
            <g id="Grupo_638">
                <path id="Trazado_3226" d="M253.182 377.631l2.629 4.078-9.8-5.66.007-2.556z" class="cls-8"/>
            </g>
        </g>
    </g>
    <g id="Grupo_642" transform="translate(-174.543 -318.688)">
        <path id="Trazado_3227" d="M256.084 396.209q-1 .7-2.036 1.325a5.289 5.289 0 0 0-1.024.714l.2.188a3.875 3.875 0 0 1 .98-.635q1.061-.588 2.166-1.1l.044-.025c.186-.11-.083-.609-.33-.467z" class="cls-23"/>
        <path id="Trazado_3228" d="M256.232 398.388q-1 .7-2.036 1.325a5.28 5.28 0 0 0-1.024.713l.2.189a3.924 3.924 0 0 1 .98-.636q1.061-.588 2.166-1.1c.014-.007.029-.017.044-.026.187-.109-.083-.608-.33-.465z" class="cls-23"/>
        <g id="Grupo_641" class="cls-4">
            <path id="Trazado_3229" d="M253.758 396.57a.3.3 0 0 0-.3.031l-1.238.714a.924.924 0 0 0-.421.725v4.552a.3.3 0 0 0 .123.271l.369.215 1.835-6.293z" class="cls-8"/>
            <path id="Trazado_3230" d="M254.248 397.051c0-.267-.192-.37-.424-.235l-1.238.714a.922.922 0 0 0-.422.725v4.552c0 .268.192.377.425.242l1.237-.714a.933.933 0 0 0 .422-.731z" class="cls-9"/>
        </g>
    </g>
    <path id="Trazado_3231" d="M273.964 385.3l-7.125 4.114-.762-1.443 8.649-4.994z" class="cls-12" transform="translate(-174.543 -318.688)"/>
    <path id="Trazado_3232" fill="#b0adaa" d="M282.27 397.277l-.528.3v-3.417l.528-.305zm-21.221 8.835l-.528.3v3.418l.528-.305z" opacity="0.8" transform="translate(-174.543 -318.688)"/>
</svg>
