<svg xmlns="http://www.w3.org/2000/svg" id="_7" width="103.713" height="71.922" viewBox="0 0 103.713 71.922">
    <defs>
        <linearGradient id="linear-gradient" x1=".503" x2=".471" y1=".492" y2=".587" gradientUnits="objectBoundingBox">
            <stop offset="0" stop-color="#95da39"/>
            <stop offset="1" stop-color="#7cb533"/>
        </linearGradient>
        <linearGradient id="linear-gradient-2" x2="1" y1=".5" y2=".5" gradientUnits="objectBoundingBox">
            <stop offset="0" stop-color="#7cb533"/>
            <stop offset="1" stop-color="#95da39"/>
        </linearGradient>
        <style>
            .cls-1{fill:#85c337}.cls-2{fill:#26231f}.cls-3{fill:#3f3932}.cls-4{isolation:isolate}.cls-5{fill:#d8d8d8}.cls-6{fill:#a8a8a8}.cls-7{fill:#bebebe}.cls-10{fill:#95da39}.cls-13,.cls-15{fill:#282523}.cls-14{fill:#454545}.cls-15{opacity:.7}.cls-16{fill:#f0fdff}.cls-23{fill:#cb5e12}
        </style>
    </defs>
    <path id="Trazado_3132" d="M403.148 369.323a1.3 1.3 0 0 1-1.141-.343c-.416-.577.188-2.926.427-3.6a.614.614 0 0 1 .722-.476c.28.062.725.251.773.563a4.511 4.511 0 0 1-.032 1.005 10.5 10.5 0 0 1-.374 2.177c-.056.188-.152.609-.375.674z" class="cls-1" transform="translate(-321.681 -344.851)"/>
    <g id="Grupo_617" transform="translate(-321.681 -344.851)">
        <path id="Trazado_3133" d="M374.89 396.545l-2.124 3.164 2.811 5.111 10.014-5.782z" class="cls-2"/>
        <path id="Trazado_3134" d="M329.288 370.216l-2.124 3.164 2.811 5.111 10.014-5.782z" class="cls-2"/>
        <g id="Grupo_613">
            <g id="Axonometric_Cylinder">
                <path id="Trazado_3135" d="M385.783 400.489c-1.621-.935-3.087-1.014-4.139-.384l-3.632 2.1 8.278 14.163 3.632-2.1a4.1 4.1 0 0 0 1.661-3.733 12.823 12.823 0 0 0-5.8-10.046z" class="cls-2"/>
                <path id="Cylinder_face" d="M387.951 412.632c0 3.7-2.6 5.2-5.8 3.349a12.82 12.82 0 0 1-5.8-10.046c0-3.7 2.6-5.2 5.8-3.349a12.819 12.819 0 0 1 5.8 10.046z" class="cls-3"/>
            </g>
            <g id="Grupo_612" class="cls-4">
                <path id="Trazado_3136" d="M382.141 414.063a8.8 8.8 0 0 1-4.066-6.881c-.039-2.579 1.719-3.679 3.926-2.458a8.8 8.8 0 0 1 4.066 6.881c.039 2.578-1.719 3.679-3.926 2.458z" class="cls-5"/>
                <path id="Trazado_3137" d="M382.131 413.408a7.569 7.569 0 0 1-3.5-5.916c-.033-2.217 1.478-3.163 3.376-2.113a7.57 7.57 0 0 1 3.5 5.916c.033 2.217-1.479 3.163-3.376 2.113z" class="cls-6"/>
                <g id="Grupo_611">
                    <path id="Trazado_3138" d="M382.3 411.549a4.282 4.282 0 0 1-1.976-3.344c-.018-1.253.836-1.788 1.908-1.194a4.277 4.277 0 0 1 1.976 3.343c.019 1.253-.836 1.788-1.908 1.195z" class="cls-5"/>
                    <path id="Trazado_3139" d="M384.4 408.151a5.147 5.147 0 0 0-1.883-2c-1.4-.773-2.51-.076-2.485 1.556a5.571 5.571 0 0 0 2.573 4.355c1.34.742 2.419.131 2.483-1.361v-.2a5.158 5.158 0 0 0-.688-2.35zm-.2 2.353c-.049 1.145-.877 1.614-1.906 1.045a4.282 4.282 0 0 1-1.976-3.344c-.018-1.253.836-1.788 1.908-1.194a3.947 3.947 0 0 1 1.446 1.534 4.5 4.5 0 0 1 .382.9 3.389 3.389 0 0 1 .148.909c.007.046.006.101.004.146z" class="cls-7"/>
                </g>
            </g>
        </g>
        <g id="Grupo_616">
            <g id="Axonometric_Cylinder-2">
                <path id="Trazado_3140" d="M340.212 374.179c-1.621-.936-3.087-1.014-4.139-.384l-3.632 2.1 8.278 14.164 3.632-2.1a4.1 4.1 0 0 0 1.661-3.733 12.821 12.821 0 0 0-5.8-10.047z" class="cls-2"/>
                <ellipse id="Cylinder_face-2" cx="4.736" cy="8.203" class="cls-3" rx="4.736" ry="8.203" transform="rotate(-30 869.988 -423.641)"/>
            </g>
            <g id="Grupo_615" class="cls-4">
                <path id="Trazado_3141" d="M336.57 387.752a8.8 8.8 0 0 1-4.066-6.88c-.039-2.579 1.719-3.68 3.926-2.458a8.8 8.8 0 0 1 4.066 6.88c.038 2.579-1.72 3.679-3.926 2.458z" class="cls-5"/>
                <path id="Trazado_3142" d="M336.56 387.1a7.567 7.567 0 0 1-3.5-5.915c-.033-2.217 1.478-3.164 3.376-2.114a7.571 7.571 0 0 1 3.495 5.916c.038 2.213-1.474 3.16-3.371 2.113z" class="cls-6"/>
                <g id="Grupo_614">
                    <path id="Trazado_3143" d="M336.729 385.238a4.276 4.276 0 0 1-1.976-3.343c-.019-1.254.836-1.788 1.908-1.195a4.281 4.281 0 0 1 1.976 3.343c.018 1.257-.837 1.788-1.908 1.195z" class="cls-5"/>
                    <path id="Trazado_3144" d="M338.834 381.84a5.143 5.143 0 0 0-1.883-2c-1.4-.773-2.51-.077-2.486 1.555a5.577 5.577 0 0 0 2.574 4.356c1.34.741 2.418.13 2.483-1.362v-.194a5.165 5.165 0 0 0-.688-2.355zm-.2 2.353c-.05 1.145-.877 1.614-1.906 1.045a4.276 4.276 0 0 1-1.976-3.343c-.019-1.254.836-1.788 1.908-1.195a3.957 3.957 0 0 1 1.446 1.535 4.448 4.448 0 0 1 .382.9 3.416 3.416 0 0 1 .148.908c.001.057.001.102-.001.15z" class="cls-7"/>
                </g>
            </g>
        </g>
        <path id="Trazado_3145" fill="#7cb533" d="M405.975 371.476l-9.323-9.912a11.719 11.719 0 0 0-2.96-2.43l-18.284-10.557a1.65 1.65 0 0 0-1.648 0l-8.245 4.76-14.7-8.486-27.148 15.673v8.6c-.248.255-.589.475-.634.834a6.356 6.356 0 0 0 0 .756v1.255a2.916 2.916 0 0 0 1.12 2.3l4.242 3.318 1.581.912v-.458c0-3.729 3.023-5.007 6.752-2.853s6.753 6.921 6.753 10.651v.457l32.1 18.531v-.458c0-3.729 3.024-5.007 6.753-2.854s6.753 6.922 6.753 10.651v.458l2.212 1.277c1.742 1.006 7.719 2.246 13.556-.4a85.955 85.955 0 0 0 15.921-9.291 10.484 10.484 0 0 0 4.28-8.4l-.034-.341a12.48 12.48 0 0 1-.167-1.413c-.012-2.429.082-3.961.145-4.713.035-.414.056-.829.056-1.245v-1.437c-.005-4.579-19.081-15.185-19.081-15.185z"/>
        <path id="Trazado_3146" fill="url(#linear-gradient)" d="M332.7 374.2c-1.648.28-2.719 1.621-2.719 3.836v.458l-1.581-.912-4.242-3.318a2.916 2.916 0 0 1-1.12-2.3v-1.255a6.356 6.356 0 0 1 0-.756c.045-.359.386-.579.634-.834v-.135zm8.066 4.657a12.332 12.332 0 0 1 2.72 6.977v.457l32.1 18.531v-.458c0-2.215 1.072-3.556 2.72-3.837zm45.6 26.328a12.33 12.33 0 0 1 2.72 6.976v.458l2.212 1.277c1.491.861 6.085 1.885 11.037.508z" opacity="0.3"/>
        <path id="Trazado_3147" d="M393.692 359.134l-18.284-10.557a1.65 1.65 0 0 0-1.648 0l-8.231 4.752-.426-.229a91.149 91.149 0 0 0-13.449 8.24c3.323.548 6.694 3 9.478 4.512 2.425 1.313 9.352 5.471 11.483 6.631a1.276 1.276 0 0 0 .985.113c4.138-1.263 21.984-12.131 21.426-12.565a11.643 11.643 0 0 0-1.334-.897z" class="cls-10"/>
        <path id="Trazado_3148" fill="url(#linear-gradient-2)" d="M380.563 397.345l-55.255-33.051-.061 2.5z" opacity="0.6"/>
        <path id="Trazado_3149" d="M377.609 385.811c-.538-1.152-5.285-11.3-6.505-13a14.191 14.191 0 0 0-3.7-2.627l-.137-.08c-1.412-.826-2.791-1.605-3.427-1.962-1.017-.612-3.679-2.141-5.594-3.242-1.3-.745-5.585-3.09-6.229-1.973-.347.6-.824 1.38-1.377 2.283-1.08 1.763-2.425 3.957-3.506 5.987a19.946 19.946 0 0 0-2.171 6.775 54.367 54.367 0 0 0-.471 7.349 1.845 1.845 0 0 0 .919 1.577l13.25 7.65 14.993 8.656a.115.115 0 0 0 .06.016.113.113 0 0 0 .056-.014.121.121 0 0 0 .066-.1c.008-.085.8-8.419 1.516-11.2a2.131 2.131 0 0 1 .311-.682l1.6-2.321a1.389 1.389 0 0 0 .232-.633l.2-1.962a.945.945 0 0 0-.086-.497zm-32.074.879a1.6 1.6 0 0 1-.8-1.367 53.979 53.979 0 0 1 .469-7.316 19.715 19.715 0 0 1 2.144-6.692c1.078-2.023 2.42-4.213 3.5-5.974.554-.9 1.032-1.685 1.38-2.289.393-.679 3.331.592 5.9 2.064 1.689.969 3.953 2.271 5.147 2.963a112.717 112.717 0 0 0-3.991 14.143 63.8 63.8 0 0 0-1.076 11.784zm31.716 1.56a1.113 1.113 0 0 1-.191.52l-1.6 2.321a2.4 2.4 0 0 0-.346.76c-.663 2.565-1.382 9.787-1.5 11.051l-14.829-8.562-.332-.192a63.248 63.248 0 0 1 1.069-11.88 112.129 112.129 0 0 1 3.96-14.044c.45.251 2.038 1.142 3.665 2.094l.137.081a14.2 14.2 0 0 1 3.623 2.559c1.2 1.674 5.944 11.806 6.481 12.957a.7.7 0 0 1 .061.374z" style="mix-blend-mode:multiply;isolation:isolate" fill="#7cb533" opacity="0.4"/>
        <path id="Trazado_3150" d="M365.454 353.3l-14.638-8.451-27.148 15.673 21.412 12.363 5.2-9.639a6.9 6.9 0 0 1 2.623-2.7z" class="cls-10"/>
        <path id="Trazado_3151" d="M373.681 373.179a122.482 122.482 0 0 0 21.594-12.467l9.4 10.379a1.329 1.329 0 0 1-.075 1.864 70.833 70.833 0 0 1-21.7 13.517 2.739 2.739 0 0 1-2.691-.406 5.123 5.123 0 0 1-1.243-1.437c-1.202-2.056-5.285-11.45-5.285-11.45z" class="cls-13"/>
        <path id="Trazado_3152" d="M381.376 385.315a2.128 2.128 0 0 1-1.321-.459 4.517 4.517 0 0 1-1.1-1.266c-.938-1.605-3.442-7.152-4.493-9.532a.486.486 0 0 1 .246-.643 128.229 128.229 0 0 0 20.428-11.829.384.384 0 0 1 .508.056l8.167 9.054a.719.719 0 0 1-.037 1.007 70.768 70.768 0 0 1-21.632 13.468 2.108 2.108 0 0 1-.766.144z" class="cls-14"/>
        <path id="Trazado_3153" d="M369.465 372l-4.541-2.621a.426.426 0 0 0-.622.219 74.479 74.479 0 0 0-2.53 9.5 1.1 1.1 0 0 0 .482 1.091l13.693 7.906a.41.41 0 0 0 .616-.354l.007-1.68a1.331 1.331 0 0 0-.1-.51c-.606-1.505-3.9-9.594-5.667-12.292a3.966 3.966 0 0 0-1.338-1.259z" class="cls-13"/>
        <path id="Trazado_3154" d="M376.226 386.384v-.535l-.069-.362c-.634-1.574-3.895-9.582-5.634-12.23a3.615 3.615 0 0 0-1.22-1.147l-3.963-2.288a.614.614 0 0 0-.893.333 82.011 82.011 0 0 0-2.353 9.084.94.94 0 0 0 .364.432l12.78 7.378a1.339 1.339 0 0 1 .988-.665z" class="cls-14"/>
        <path id="Trazado_3155" d="M358.509 378.3l-9.917-5.726a.506.506 0 0 1-.209-.659c.693-1.442 2.989-6.189 4.045-7.962a1.11 1.11 0 0 1 1.131-.543c2.174.356 7.218 3.54 8.368 4.229a.3.3 0 0 1 .126.369 63.952 63.952 0 0 0-3.063 10.073.324.324 0 0 1-.481.219z" class="cls-13"/>
        <path id="Trazado_3156" d="M348.842 372.079l-.059-.167c.674-1.4 2.732-5.652 3.834-7.6a1.171 1.171 0 0 1 1.38-.548 50.531 50.531 0 0 1 7.411 3.771.488.488 0 0 1 .21.6 64.187 64.187 0 0 0-2.9 9.643z" class="cls-14"/>
    </g>
    <path id="Trazado_3157" d="M406.534 371.792c-1.8 2.312-12.3 12.219-27.9 17.079 0 0 14.9 11.811 20.2 12.454 4.038.49 7.764-1.687 13.769-4.991 11.342-6.241 12.444-8.458 12.444-9.678.004-4.025-14.886-12.88-18.513-14.864z" class="cls-10" transform="translate(-321.681 -344.851)"/>
    <path id="Trazado_3158" d="M424.85 394.051s-.127.376-.353.381c-.2 0-1.351-3.574-1.869-3.223a162.842 162.842 0 0 1-14.922 8.887 5.34 5.34 0 0 0-2.422 2.854l-.993 2.93c-1.109 4.33-8.016 3.9-12.46 2.391a1.418 1.418 0 0 0-1.887 1.338v3.039a1.228 1.228 0 0 0 .614 1.064l.736.425c1.742 1.006 7.719 2.246 13.556-.4a85.955 85.955 0 0 0 15.921-9.291 10.811 10.811 0 0 0 4.459-7.083c.052-.434.186-3.944-.379-4.387z" class="cls-14" transform="translate(-321.681 -344.851)"/>
    <path id="Trazado_3159" d="M424 395.155c-.295-.906-1.141-3.668-1.531-3.4a150.786 150.786 0 0 1-14.616 8.836 4.61 4.61 0 0 0-2 2.659 31.707 31.707 0 0 1-1.24 4.162c5.531-1.563 18.048-9.012 19.387-12.257z" class="cls-15" transform="translate(-321.681 -344.851)"/>
    <path id="Trazado_3160" d="M394.482 402.406c-1.27-.2-2.466 1.82-.714 3.518 1.5 1.454 7.269 1.048 9.263-.087.411-.234 1.578-4.188 1.143-4.043a22.446 22.446 0 0 1-9.692.612z" class="cls-16" transform="translate(-321.681 -344.851)"/>
    <path id="Trazado_3161" fill="#e9751c" d="M394.518 402.41c-1.306-.2-2.5 1.816-.75 3.514a2.827 2.827 0 0 0 1.125.589 6.8 6.8 0 0 1-.375-4.103z" transform="translate(-321.681 -344.851)"/>
    <path id="Trazado_3162" d="M424.6 392.561a.8.8 0 0 0 .266-.3 11.818 11.818 0 0 0 .184-4.212c-.3 1.162-1.424 1.929-1.574 2.294-.1.243.824 2.318 1.124 2.218z" class="cls-16" transform="translate(-321.681 -344.851)"/>
    <path id="Trazado_3163" fill="#454545" d="M425.232 394.436c-.1.186-.231.395-.376.635a14.288 14.288 0 0 1-1.2 1.5 23.416 23.416 0 0 1-1.834 1.717 65.3 65.3 0 0 1-11.585 7.16c-1.1.555-2.23 1.151-3.325 1.651a30.872 30.872 0 0 1-3.3 1.338 28.268 28.268 0 0 1-3.206.851 19.38 19.38 0 0 1-2.943.346 16.275 16.275 0 0 1-2.5-.083 12.657 12.657 0 0 1-1.892-.35 7.515 7.515 0 0 1-1.55-.579.243.243 0 0 0-.248.418 8.092 8.092 0 0 0 1.639.7 13.1 13.1 0 0 0 1.964.454 14.15 14.15 0 0 0 2.6.175 20.046 20.046 0 0 0 3.069-.283 24.027 24.027 0 0 0 3.331-.828 31.842 31.842 0 0 0 3.4-1.349c1.144-.518 2.241-1.067 3.361-1.651 2.228-1.156 4.423-2.371 6.426-3.618a41.045 41.045 0 0 0 5.218-3.806 19.965 19.965 0 0 0 1.836-1.841 14.951 14.951 0 0 0 1.149-1.558c.006-.335-.008-.677-.034-.999z" transform="translate(-321.681 -344.851)" style="mix-blend-mode:screen;isolation:isolate" opacity="0.5"/>
    <path id="Trazado_3164" d="M323.669 369.682v-2.471l-1.241 1.225a2.508 2.508 0 0 0-.746 1.784v1.734a3.013 3.013 0 0 0 1.112 2.337l2.91 2.365a7.222 7.222 0 0 0 .946.652l1.6.923.686-.4v-5.114z" class="cls-14" transform="translate(-321.681 -344.851)"/>
    <path id="Trazado_3165" d="M350.279 363.248a6.9 6.9 0 0 1 2.623-2.7l11.942-6.9-14.029-8.1-25.927 14.971 20.482 11.831z" class="cls-14" transform="translate(-321.681 -344.851)"/>
    <path id="Trazado_3166" fill="#282523" d="M330.755 363.912l20.06-11.582v-6.776l-25.928 14.97z" opacity="0.3" transform="translate(-321.681 -344.851)"/>
    <path id="Trazado_3167" d="M358.976 357.042l5.868-3.388-14.028-8.1v6.776z" class="cls-15" transform="translate(-321.681 -344.851)"/>
    <path id="Trazado_3168" fill="#95da39" d="M417.465 386.208c-.213-.248-.494-.625-.872-1.036s-.8-.908-1.291-1.4l-1.53-1.559-1.591-1.5c-.505-.48-1.014-.89-1.431-1.261s-.8-.642-1.054-.85l-.4-.318c-.027.028 2.091 2.115 4.21 4.2l4.263 4.147c.023-.031-.096-.171-.304-.423z" transform="translate(-321.681 -344.851)" style="mix-blend-mode:screen;isolation:isolate" opacity="0.6"/>
    <path id="Trazado_3169" fill="#7cb533" d="M389.561 389.267c-.019.033.158.157.468.373s.745.54 1.291.884 1.172.767 1.866 1.177l2.175 1.287 2.218 1.212c.706.39 1.391.708 1.965 1s1.078.5 1.419.658l.542.245c.019-.034-2.967-1.744-5.953-3.453z" opacity="0.5" transform="translate(-321.681 -344.851)"/>
    <g id="Grupo_618" transform="translate(-321.681 -344.851)">
        <path id="Trazado_3170" d="M375.771 385.488a23.634 23.634 0 0 0-2.732.319l-.5 1.93 3.089-.193a1 1 0 0 0 .656-1 1.311 1.311 0 0 0-.345-.955.466.466 0 0 0-.168-.101z" class="cls-13"/>
        <path id="Trazado_3171" d="M371.575 388.255c.927-.091 1.907-.055 1.977-3.006a.8.8 0 0 0-.6-.89 3.217 3.217 0 0 0-1.857.219c-3.26.871-3.371 1.413-3.365 2.772.009 1.05 2.793 1.009 3.845.905z" class="cls-1"/>
    </g>
    <path id="Trazado_3172" d="M372.933 384.859c.046.172-.679.516-1.619.768s-1.74.317-1.786.145.679-.516 1.619-.768 1.74-.317 1.786-.145z" transform="translate(-321.681 -344.851)" style="mix-blend-mode:screen;isolation:isolate" fill="#95da39"/>
    <path id="Trazado_3173" d="M363.529 384.263l-2.1-1.209a.78.78 0 0 1-.376-.594v-.522c0-.208.168-.279.376-.159l2.1 1.209a.78.78 0 0 1 .376.594v.522c-.005.208-.168.279-.376.159z" class="cls-13" transform="translate(-321.681 -344.851)"/>
    <path id="Trazado_3174" d="M350.153 376.54l-2.1-1.209a.78.78 0 0 1-.376-.594v-.521c0-.208.168-.28.376-.159l2.1 1.209a.78.78 0 0 1 .376.594v.521c0 .208-.168.279-.376.159z" class="cls-13" transform="translate(-321.681 -344.851)"/>
    <path id="Trazado_3175" d="M377.907 399.131l-1.3-.749a.711.711 0 0 1-.343-.541v-.149c0-.189.154-.254.343-.145l1.3.749a.713.713 0 0 1 .343.541v.149c0 .189-.15.254-.343.145z" class="cls-23" transform="translate(-321.681 -344.851)"/>
    <path id="Trazado_3176" d="M326.93 369.7l-1.3-.749a.713.713 0 0 1-.343-.541v-.149c0-.189.154-.254.343-.145l1.3.749a.711.711 0 0 1 .343.541v.148c0 .19-.154.255-.343.146z" class="cls-23" transform="translate(-321.681 -344.851)"/>
    <g id="Grupo_619" fill="#7cb533" transform="translate(-321.681 -344.851)">
        <path id="Trazado_3177" d="M391.877 360.5a.888.888 0 0 1-.8 0l-16.983-9.805a.245.245 0 0 1 0-.464.888.888 0 0 1 .8 0l16.983 9.8a.245.245 0 0 1 0 .469zm-2.224.82l-16.983-9.8a.888.888 0 0 0-.8 0 .245.245 0 0 0 0 .464l16.983 9.8a.888.888 0 0 0 .8 0 .245.245 0 0 0 0-.467zm-2.225 1.284l-16.982-9.804a.888.888 0 0 0-.8 0 .245.245 0 0 0 0 .464l16.983 9.8a.886.886 0 0 0 .8 0 .245.245 0 0 0-.001-.464zm-2.224 1.285l-16.982-9.8a.881.881 0 0 0-.8 0 .244.244 0 0 0 0 .463l16.982 9.8a.888.888 0 0 0 .8 0 .244.244 0 0 0-.004-.466zm-2.224 1.284L366 355.365a.888.888 0 0 0-.8 0 .245.245 0 0 0 0 .463l16.983 9.8a.888.888 0 0 0 .8 0 .244.244 0 0 0-.003-.458zm-2.224 1.284l-16.983-9.805a.888.888 0 0 0-.8 0 .245.245 0 0 0 0 .463l16.983 9.8a.881.881 0 0 0 .8 0 .245.245 0 0 0 0-.461zm-2.224 1.284l-16.983-9.8a.887.887 0 0 0-.8 0 .245.245 0 0 0 0 .464l16.983 9.8a.888.888 0 0 0 .8 0 .245.245 0 0 0 0-.467zm-2.225 1.284l-16.982-9.8a.887.887 0 0 0-.8 0 .245.245 0 0 0 0 .464l16.982 9.8a.887.887 0 0 0 .8 0 .245.245 0 0 0 0-.467zm-2.224 1.284L357.1 360.5a.885.885 0 0 0-.8 0 .245.245 0 0 0 0 .464l16.982 9.8a.887.887 0 0 0 .8 0 .245.245 0 0 0 .001-.458z" opacity="0.2"/>
        <path id="Trazado_3178" d="M378.532 368.2a.7.7 0 0 1-.146.055c.11-.123.083-.276-.1-.38l-16.982-9.805a.89.89 0 0 0-.658-.055.364.364 0 0 1 .1-.084.887.887 0 0 1 .8 0l16.983 9.8a.245.245 0 0 1 .003.469zm2.224-1.748l-16.983-9.805a.888.888 0 0 0-.8 0 .365.365 0 0 0-.1.084.89.89 0 0 1 .658.055l16.982 9.8c.179.1.207.257.1.38a.661.661 0 0 0 .145-.056.245.245 0 0 0-.002-.456zm-6.673 3.852L357.1 360.5a.885.885 0 0 0-.8 0 .408.408 0 0 0-.1.084.89.89 0 0 1 .658.056l16.983 9.805c.179.1.206.256.1.38a.714.714 0 0 0 .145-.056.245.245 0 0 0-.003-.463zm8.9-5.136L366 355.365a.888.888 0 0 0-.8 0 .379.379 0 0 0-.1.083.9.9 0 0 1 .658.056l16.983 9.8c.179.1.206.257.1.38a.661.661 0 0 0 .145-.056.244.244 0 0 0-.006-.458zm-6.673 3.852l-16.982-9.8a.887.887 0 0 0-.8 0 .387.387 0 0 0-.1.084.89.89 0 0 1 .658.055l16.983 9.806c.179.1.206.256.1.379a.659.659 0 0 0 .145-.055.245.245 0 0 0-.007-.467zm15.57-8.989l-16.983-9.8a.888.888 0 0 0-.8 0 .381.381 0 0 0-.1.084.889.889 0 0 1 .658.055l16.983 9.8c.179.1.206.257.1.38a.716.716 0 0 0 .145-.055.245.245 0 0 0-.006-.462zm-6.673 3.853l-16.982-9.806a.888.888 0 0 0-.8 0 .409.409 0 0 0-.1.084.9.9 0 0 1 .658.056l16.983 9.8c.179.1.206.256.1.38a.716.716 0 0 0 .145-.056.244.244 0 0 0-.011-.456zm4.449-2.569l-16.983-9.8a.888.888 0 0 0-.8 0 .364.364 0 0 0-.1.084.89.89 0 0 1 .658.055l16.982 9.806c.179.1.206.256.1.379a.66.66 0 0 0 .145-.055.245.245 0 0 0-.005-.467zm-2.225 1.284l-16.985-9.799a.888.888 0 0 0-.8 0 .384.384 0 0 0-.1.084.887.887 0 0 1 .657.056l16.983 9.8c.179.1.206.256.1.38a.694.694 0 0 0 .145-.056.245.245 0 0 0-.003-.464z" opacity="0.4"/>
    </g>
    <path id="Trazado_3179" d="M419.617 402.194l-6.256 3.895v1.965l6.256-3.895z" class="cls-5" transform="translate(-321.681 -344.851)"/>
    <g id="Grupo_620" transform="translate(-321.681 -344.851)">
        <path id="Trazado_3180" d="M424.572 394.849a2.256 2.256 0 0 0-2.269.229l-.865.633a83.127 83.127 0 0 1-8.672 5.769 5 5 0 0 0-2.424 3.87v4.5l-1.493-.862a.612.612 0 0 0-.612 1.061l2.412 1.392a.612.612 0 0 0 .612 0 .612.612 0 0 0 .306-.53v-5.561a3.784 3.784 0 0 1 1.813-2.81 84.134 84.134 0 0 0 8.78-5.841l.81-.6c.488-.282.83-.284.99-.193.182.106.21.394.21.558v4.8l-1.324-.763a.612.612 0 0 0-.612 1.06l2.242 1.294a.612.612 0 0 0 .918-.53v-5.856a1.766 1.766 0 0 0-.822-1.62z" class="cls-5"/>
        <path id="Trazado_3181" fill="#fff" d="M413.362 401.642a36.532 36.532 0 0 0 4.952-2.932 27.1 27.1 0 0 0 4.336-3.392c-.04-.07-2 1.382-4.578 3.108s-4.75 3.146-4.71 3.216z"/>
    </g>
</svg>
