<svg xmlns="http://www.w3.org/2000/svg" id="_12" width="71.911" height="79.491" viewBox="0 0 71.911 79.491">
    <defs>
        <linearGradient id="linear-gradient" x1=".607" x2=".714" y1=".5" y2=".5" gradientUnits="objectBoundingBox">
            <stop offset="0" stop-color="#7cb533"/>
            <stop offset="1" stop-color="#89c738"/>
        </linearGradient>
        <style>
            .cls-1{fill:#26231f}.cls-2{fill:#3f3932}.cls-24,.cls-3{isolation:isolate}.cls-4{fill:#d8d8d8}.cls-5{fill:#a8a8a8}.cls-6{fill:#bebebe}.cls-7{fill:#d3d3d3}.cls-8{fill:#444342}.cls-24,.cls-9{fill:#95da39}.cls-12{fill:#7cb533}.cls-13{fill:#89c738}.cls-24{opacity:.6;mix-blend-mode:screen}.cls-18{fill:#2b2928}.cls-19{fill:#3a3837}.cls-20{fill:#e2e2e2}.cls-21{fill:#cd8005}
        </style>
    </defs>
    <g id="Grupo_727" transform="translate(-329.351 -126.379)">
        <g id="Grupo_721">
            <g id="Axonometric_Cylinder">
                <path id="Trazado_3318" d="M348.931 159.251c-2.134-1.232-4.063-1.335-5.449-.505l-4.781 2.76 10.9 18.645 4.781-2.76c1.352-.81 2.186-2.509 2.186-4.914a16.878 16.878 0 0 0-7.637-13.226z" class="cls-1"/>
                <path id="Cylinder_face" d="M351.786 175.237c0 4.869-3.419 6.843-7.636 4.408a16.877 16.877 0 0 1-7.636-13.225c0-4.87 3.419-6.843 7.636-4.409a16.879 16.879 0 0 1 7.636 13.226z" class="cls-2"/>
            </g>
            <g id="Grupo_720" class="cls-3">
                <path id="Trazado_3319" d="M344.136 177.12a11.589 11.589 0 0 1-5.352-9.058c-.051-3.395 2.263-4.844 5.168-3.236a11.59 11.59 0 0 1 5.353 9.058c.051 3.395-2.263 4.843-5.169 3.236z" class="cls-4"/>
                <path id="Trazado_3320" d="M344.123 176.258a9.966 9.966 0 0 1-4.6-7.788c-.043-2.919 1.946-4.164 4.444-2.782a9.963 9.963 0 0 1 4.6 7.788c.044 2.918-1.946 4.164-4.444 2.782z" class="cls-5"/>
                <g id="Grupo_719">
                    <path id="Trazado_3321" d="M344.346 173.81a5.632 5.632 0 0 1-2.6-4.4c-.025-1.649 1.1-2.353 2.512-1.572a5.635 5.635 0 0 1 2.6 4.4c.024 1.649-1.1 2.353-2.512 1.572z" class="cls-4"/>
                    <path id="Trazado_3322" d="M347.118 169.337a6.776 6.776 0 0 0-2.48-2.631c-1.839-1.018-3.3-.1-3.272 2.048a7.334 7.334 0 0 0 3.388 5.733c1.764.976 3.184.172 3.268-1.791 0-.084.005-.169 0-.257a6.8 6.8 0 0 0-.904-3.102zm-.263 3.1c-.065 1.508-1.155 2.125-2.509 1.376a5.632 5.632 0 0 1-2.6-4.4c-.025-1.649 1.1-2.353 2.512-1.572a5.2 5.2 0 0 1 1.9 2.02 5.889 5.889 0 0 1 .5 1.185 4.472 4.472 0 0 1 .2 1.2c.001.054 0 .124-.003.188z" class="cls-6"/>
                </g>
            </g>
        </g>
        <path id="Trazado_3323" d="M387.9 179.146a10.416 10.416 0 0 1-3.71-1.369L361.709 164.8a.683.683 0 1 0-.683 1.182l22.483 12.981a11.778 11.778 0 0 0 4.2 1.539.772.772 0 0 0 .1.007.683.683 0 0 0 .1-1.36z" class="cls-7"/>
        <path id="Trazado_3324" d="M352.652 160.609l-5.3 18.788s22.949 15.689 27.618 11.476l8.995-12.183z" class="cls-8"/>
        <g id="Grupo_722" class="cls-3">
            <path id="Trazado_3325" d="M365.218 154.705c-2.718-3.188-8.718-6.678-13.751-4.1l-4.592 2.662 17.54 19.649 4.592-2.662c.039-.023.058-.078.058-.157.02-6.837.459-10.084-3.847-15.392z" class="cls-9"/>
            <path id="Trazado_3326" fill="#39b5da" d="M364.432 167.068a10.746 10.746 0 0 0-.123-1.521c-.025-.184-.057-.367-.091-.553-.063-.331-.141-.662-.23-1-.11-.419-.242-.833-.391-1.25-.058-.162-.107-.325-.17-.487.016.047.021.079.036.124a17.2 17.2 0 0 0-3.718-5.827c-.3-.3-.6-.591-.919-.86-.1-.081-.191-.164-.288-.241a10.74 10.74 0 0 0-1.35-.936l-.5-.291c-3.831-2.212-7.3-2.418-9.843-.941-3.025 2.005-4.888 6.642-3.115 7.752l1.029.594 1.029.594 1.028.594 1.029.594 1.028.594 1.029.593 1.028.594 1.027.593 1.028.593 1.027.593 1.026.593 1.026.592 1.026.593 1.025.591 1.025.592 1.024.591 1.023.591 1.022.59 1.022.59 1.018.588c.072.041.13.053.17.03z"/>
            <path id="Trazado_3327" fill="#1f6175" d="M356.893 155.507a14.409 14.409 0 0 1 6.536 11.323c0 1.95-.011 3.9-.014 5.036 0-.086-.775-.448-.875-.506l-.884-.51c-.274-.158-17.545-10.091-17.763-10.319-.7-.726.187-2.705.661-3.567a6.646 6.646 0 0 1 4.773-3.449 10.988 10.988 0 0 1 7.062 1.7z"/>
        </g>
        <g id="Grupo_726" class="cls-3">
            <g id="Grupo_725">
                <g id="Axonometric_Cylinder-2">
                    <path id="Trazado_3328" d="M392.547 184.433c-2.133-1.232-4.063-1.335-5.448-.505l-4.781 2.76 10.9 18.645 4.781-2.76c1.353-.81 2.187-2.509 2.187-4.914a16.876 16.876 0 0 0-7.639-13.226z" class="cls-1"/>
                    <path id="Cylinder_face-2" d="M395.4 200.419c0 4.869-3.418 6.843-7.635 4.408a16.877 16.877 0 0 1-7.636-13.225c0-4.869 3.419-6.843 7.636-4.408a16.874 16.874 0 0 1 7.635 13.225z" class="cls-2"/>
                </g>
                <g id="Grupo_724" class="cls-3">
                    <path id="Trazado_3329" d="M387.753 202.3a11.59 11.59 0 0 1-5.353-9.058c-.05-3.4 2.264-4.844 5.169-3.236a11.59 11.59 0 0 1 5.353 9.058c.05 3.397-2.264 4.846-5.169 3.236z" class="cls-4"/>
                    <path id="Trazado_3330" d="M387.74 201.44a9.966 9.966 0 0 1-4.6-7.788c-.044-2.919 1.946-4.164 4.444-2.782a9.966 9.966 0 0 1 4.6 7.788c.044 2.919-1.946 4.164-4.444 2.782z" class="cls-5"/>
                    <g id="Grupo_723">
                        <path id="Trazado_3331" d="M387.963 198.992a5.63 5.63 0 0 1-2.6-4.4c-.025-1.65 1.1-2.354 2.511-1.573a5.63 5.63 0 0 1 2.6 4.4c.026 1.65-1.1 2.354-2.511 1.573z" class="cls-4"/>
                        <path id="Trazado_3332" d="M390.734 194.519a6.774 6.774 0 0 0-2.479-2.631c-1.839-1.018-3.3-.1-3.272 2.048a7.334 7.334 0 0 0 3.388 5.733c1.764.976 3.184.173 3.268-1.791 0-.084.005-.169 0-.257a6.8 6.8 0 0 0-.905-3.102zm-.262 3.1c-.065 1.508-1.155 2.125-2.509 1.376a5.63 5.63 0 0 1-2.6-4.4c-.025-1.65 1.1-2.354 2.511-1.573a5.2 5.2 0 0 1 1.9 2.02 5.973 5.973 0 0 1 .5 1.185 4.436 4.436 0 0 1 .194 1.2c.007.06.006.125.004.189z" class="cls-6"/>
                    </g>
                </g>
            </g>
            <path id="Trazado_3333" d="M399.979 191.493a20.163 20.163 0 0 0-3.245-5.1 15.065 15.065 0 0 0-3.455-2.962l-.2-.121c-2.261-1.3-4.371-1.417-5.921-.516l-6.235 3.623s14.077 13.16 13.991 13.212l6.235-3.623a.307.307 0 0 0 .1-.341 17.49 17.49 0 0 0-1.27-4.172z" class="cls-9"/>
            <path id="Trazado_3334" d="M387.044 187.05l-.2-.121c-3.694-2.132-6.99-1.078-8.087 2.374a9.254 9.254 0 0 0-.253 3.94 1.61 1.61 0 0 0 .712 1.105.707.707 0 0 0 .254.093l7.214 1.082a7.447 7.447 0 0 1 2.511.939l5.439 3.14c.25.145.444-.013.388-.314-.79-4.745-4.041-9.853-7.978-12.238z" class="cls-12"/>
        </g>
        <path id="Trazado_3335" d="M368.565 163.336c1.056 3.089 2.4 6.112 3.38 9.22 1.566 4.985 6.156 19.5-4.172 18.751 1.082.524 3.989.847 7.458.924a5.921 5.921 0 0 0 4.221-1.625 22.725 22.725 0 0 0 3.033-3.555 7.83 7.83 0 0 1 2.43-2.284c1.348-.811 3.033-1.8 3.532-2.051a3.645 3.645 0 0 1 2.435-.262l.761.175c.236-10.65-.429-17.889-6.564-26.914a4.918 4.918 0 0 0-6.519-1.463l-8.385 4.841a3.576 3.576 0 0 0-1.61 4.243z" class="cls-13"/>
        <path id="Trazado_3336" fill="#95da39" d="M380.12 186.785c3.687-3.925 8.7-6.853 11.557-6.745.048-9.141-.956-15.861-6.369-23.971.16 1.542.265 3.107-5.133 5.8a15.5 15.5 0 0 1-6.953 1.338 51.41 51.41 0 0 1 5.67 23.1.706.706 0 0 0 1.228.478z" opacity="0.6"/>
    </g>
    <path id="Trazado_3337" fill="url(#linear-gradient)" d="M365.093 160.29l-18.285-9.6-6.293 3.748a1.6 1.6 0 0 0-.779 1.371v8.091l13.939 13.307 3.341 1.929a1.4 1.4 0 0 0 1.4 0l7.9-4.562a1.114 1.114 0 0 0 .555-.963v-10.229a3.569 3.569 0 0 0-1.778-3.092z" transform="translate(-329.351 -126.379)"/>
    <g id="Grupo_728" class="cls-3" transform="translate(-329.351 -126.379)">
        <path id="Trazado_3338" d="M351.533 162.606c-2.717-3.188-8.718-6.678-13.751-4.1l-4.591 2.662 17.539 19.652 4.592-2.662c.039-.023.058-.078.058-.157.02-6.84.46-10.087-3.847-15.395z" class="cls-9"/>
        <path id="Trazado_3339" d="M350.747 174.97a10.753 10.753 0 0 0-.123-1.522c-.025-.184-.057-.367-.091-.553-.063-.331-.141-.662-.23-1-.11-.419-.242-.833-.391-1.25-.058-.162-.107-.325-.17-.487.016.047.021.079.036.124a17.2 17.2 0 0 0-3.718-5.827c-.3-.3-.6-.591-.919-.86-.1-.081-.191-.164-.288-.241a10.743 10.743 0 0 0-1.35-.936l-.5-.291c-3.831-2.212-7.3-2.418-9.843-.941-3.025 2.005-4.888 6.642-3.115 7.752l1.029.594 1.029.594 1.028.594 1.029.594 1.028.594 1.029.593 1.028.594 1.027.593 1.028.593 1.027.593 1.026.593 1.026.593 1.026.592 1.025.591 1.025.592 1.024.591 1.023.591 1.022.59 1.022.59 1.018.588c.072.041.13.053.17.03z" class="cls-13"/>
        <path id="Trazado_3340" d="M343.208 163.408a14.41 14.41 0 0 1 6.537 11.323l-.015 5.036c0-.086-.775-.448-.875-.506l-.884-.51c-.274-.158-17.545-10.091-17.763-10.319-.7-.726.187-2.705.661-3.567a6.646 6.646 0 0 1 4.773-3.449 10.988 10.988 0 0 1 7.062 1.7z" class="cls-12"/>
    </g>
    <g id="Grupo_729" class="cls-3" transform="translate(-329.351 -126.379)">
        <path id="Trazado_3341" fill="#333" d="M365.022 159.31l-5.045 2.932a3.914 3.914 0 0 1-3.547 0l-15.147-8.742a1.257 1.257 0 0 1-.743-1.035l-.008 2.889a1.255 1.255 0 0 0 .742 1.034l15.147 8.746a3.916 3.916 0 0 0 3.548 0l5.045-2.932a1.243 1.243 0 0 0 .727-1.02l.009-2.888a1.246 1.246 0 0 1-.728 1.016z"/>
        <path id="Trazado_3342" d="M365.01 157.255l-15.147-8.745a3.9 3.9 0 0 0-3.548 0l-5.044 2.932a1.085 1.085 0 0 0 .012 2.055l15.147 8.745a3.914 3.914 0 0 0 3.547 0l5.045-2.932a1.086 1.086 0 0 0-.012-2.055z" class="cls-8"/>
        <path id="Trazado_3343" d="M361.326 161.351c-.55.3-1.145.693-1.777.973a4 4 0 0 1-2.181.126 8.292 8.292 0 0 1-2.132-1.07l-2.172-1.278-8.08-4.574-3.7-2.031 3.609 2.189 8 4.711 2.192 1.242a8.489 8.489 0 0 0 2.228 1.064 4.26 4.26 0 0 0 2.314-.174c.688-.322 1.232-.706 1.791-1.018l3.6-2.2z" style="mix-blend-mode:screen;isolation:isolate" fill="#444342" opacity="0.5"/>
    </g>
    <path id="Trazado_3344" d="M376.287 155.568a.683.683 0 0 0-.932-.255l-3.281 1.869-1.728.985a5.173 5.173 0 0 0-1.061.733 4.172 4.172 0 0 0-1.144 4.312l1.072 2.8a85.323 85.323 0 0 1 3.973 13.339 20.566 20.566 0 0 1 .3 7.566 6 6 0 0 1-.609 1.668 3.375 3.375 0 0 1-1.144 1.147 5.318 5.318 0 0 1-3.473.3 11.5 11.5 0 0 1-3.561-1.479l-3.543-2.027-6.889-3.942c-2.248-1.283-4.381-2.5-6.408-3.716l-5.724-3.388c-3.57-2.057-6.535-3.787-8.641-4.949l-3.3-1.833a.155.155 0 0 0-.161.264l3.148 2.091c2 1.336 4.9 3.173 8.368 5.4l5.641 3.524c1.983 1.275 4.164 2.54 6.38 3.823l6.859 3.995 3.527 2.054a13.022 13.022 0 0 0 3.995 1.678 6.782 6.782 0 0 0 4.548-.434 4.933 4.933 0 0 0 1.733-1.7 7.274 7.274 0 0 0 .8-2.131 21.934 21.934 0 0 0-.3-8.2 81.842 81.842 0 0 0-4.091-13.592l-1.077-2.708a2.706 2.706 0 0 1 .711-2.8 3.715 3.715 0 0 1 .791-.549l1.717-1.005 3.259-1.907a.684.684 0 0 0 .245-.933z" class="cls-7" transform="translate(-329.351 -126.379)"/>
    <g id="Grupo_732" transform="translate(-329.351 -126.379)">
        <g id="Grupo_730" class="cls-3">
            <path id="Trazado_3345" d="M378.194 140.737c-.068-.13-.5-.066-1.226.2-.115.042-.238.09-.368.143-.529.215-1.107.488-1.67.781a15.429 15.429 0 0 0-2.581 1.624c-.309.263-.429.439-.383.527l1.981 3.766c-.046-.088.074-.265.383-.528a15.434 15.434 0 0 1 2.581-1.623c.563-.294 1.141-.566 1.67-.782.13-.053.253-.1.368-.143.727-.268 1.158-.331 1.226-.2z" class="cls-8"/>
        </g>
        <g id="Grupo_731" class="cls-3">
            <path id="Trazado_3346" d="M370.866 144.383c-.081-.122-.5-.015-1.2.326q-.165.081-.351.18c-.505.269-1.052.6-1.582.948a15.528 15.528 0 0 0-2.4 1.879c-.279.293-.381.482-.327.564l2.356 3.543c-.055-.082.047-.271.327-.564a15.481 15.481 0 0 1 2.4-1.879c.53-.349 1.077-.679 1.582-.948q.185-.1.351-.18c.695-.341 1.117-.448 1.2-.326z" class="cls-8"/>
        </g>
    </g>
    <g id="Axonometric_Cylinder-3" transform="translate(-329.351 -126.379)">
        <path id="Cylinder_face-3" d="M388.708 142.826c0 .634-.445.891-.994.574a2.2 2.2 0 0 1-.993-1.721c0-.634.445-.891.993-.574a2.2 2.2 0 0 1 .994 1.721z" class="cls-18"/>
        <path id="Cylinder_body" d="M387.005 141.039l5.786-3.34a.692.692 0 0 1 .709.066 2.195 2.195 0 0 1 .993 1.721.7.7 0 0 1-.284.639l-5.786 3.341a.7.7 0 0 0 .285-.64 2.2 2.2 0 0 0-.994-1.721.7.7 0 0 0-.709-.066z" class="cls-19"/>
    </g>
    <path id="Trazado_3347" d="M387.473 141.48a.551.551 0 0 0-.563-.052l-2.239 1.293a.559.559 0 0 0-.232.511 1.748 1.748 0 0 0 .789 1.367.472.472 0 0 0 .672-.074.419.419 0 0 1-.109.126l2.245-1.3a.558.558 0 0 0 .226-.508 1.745 1.745 0 0 0-.789-1.363z" class="cls-20" transform="translate(-329.351 -126.379)"/>
    <path id="Trazado_3348" d="M386.176 142.915a2.8 2.8 0 1 1-4.042-1.506 3.078 3.078 0 0 1 4.042 1.506z" class="cls-9" transform="translate(-329.351 -126.379)"/>
    <g id="Grupo_733" transform="translate(-329.351 -126.379)">
        <path id="Trazado_3349" d="M387.22 145.017c.34.8-.966 2.479-1.833 2.05-1.675-.828.312-3.309 1.571-2.392a.788.788 0 0 1 .262.342z" class="cls-9"/>
        <path id="Trazado_3350" d="M386.924 145.139c-.238-.187-.724.034-1.086.494s-.463.985-.226 1.173.724-.035 1.086-.495.464-.985.226-1.172z" class="cls-21"/>
    </g>
    <path id="Trazado_3351" d="M363.974 154.629c2.476 4.288 8.978 5.169 14.524 1.967 4.8-2.772 7.312-7.695 6.293-11.749a3.349 3.349 0 0 0-3.386-2.564c-6.279.332-19.516 8.735-17.431 12.346z" class="cls-13" transform="translate(-329.351 -126.379)"/>
    <g id="Grupo_734" transform="translate(-329.351 -126.379)">
        <path id="Trazado_3352" d="M385.58 150.963c1.35 3.172-3.7 9.55-7.263 8.123-3.117-1.25-6.454-8.233-.8-10.775a7.2 7.2 0 0 1 7.025 1.3 3.339 3.339 0 0 1 1.038 1.352z" class="cls-9"/>
        <path id="Trazado_3353" fill="#f0fdff" d="M384.682 150.969c-1.066-.84-3.248.154-4.874 2.218s-2.079 4.42-1.012 5.259 3.249-.153 4.874-2.218 2.079-4.419 1.012-5.259z"/>
    </g>
    <path id="Trazado_3354" d="M368.129 153.334a2.8 2.8 0 1 1-4.042-1.506 3.078 3.078 0 0 1 4.042 1.506z" class="cls-9" transform="translate(-329.351 -126.379)"/>
    <g id="Grupo_735" transform="translate(-329.351 -126.379)">
        <path id="Trazado_3355" d="M368.746 155.683c.341.8-.965 2.479-1.833 2.05-1.674-.828.312-3.309 1.571-2.392a.788.788 0 0 1 .262.342z" class="cls-9"/>
        <path id="Trazado_3356" d="M368.451 155.8c-.238-.187-.724.034-1.087.494s-.463.985-.225 1.172.724-.034 1.086-.494.463-.98.226-1.172z" class="cls-21"/>
    </g>
    <path id="Trazado_3357" d="M364.209 154.912a.549.549 0 0 0-.563-.052l-2.239 1.293a.555.555 0 0 0-.232.51 1.742 1.742 0 0 0 .789 1.367.473.473 0 0 0 .672-.073.432.432 0 0 1-.109.126l2.245-1.3a.556.556 0 0 0 .226-.507 1.742 1.742 0 0 0-.789-1.364z" class="cls-20" transform="translate(-329.351 -126.379)"/>
    <g id="Axonometric_Cylinder-4" transform="translate(-329.351 -126.379)">
        <path id="Cylinder_face-4" d="M357.789 160.677c0 .634-.445.891-.994.574a2.2 2.2 0 0 1-.994-1.721c0-.634.445-.891.994-.574a2.2 2.2 0 0 1 .994 1.721z" class="cls-18"/>
        <path id="Cylinder_body-2" d="M356.086 158.89l5.785-3.34a.694.694 0 0 1 .709.066 2.2 2.2 0 0 1 .994 1.721.7.7 0 0 1-.284.64l-5.786 3.34a.7.7 0 0 0 .285-.64 2.2 2.2 0 0 0-.994-1.721.7.7 0 0 0-.709-.066z" class="cls-19"/>
    </g>
    <path id="Trazado_3358" fill="#bf5b00" d="M335.142 169.069c0 .308-.765.115-1.708-.429s-1.708-1.236-1.708-1.543.764-.115 1.708.43 1.708 1.235 1.708 1.542z" transform="translate(-329.351 -126.379)"/>
    <g id="Grupo_738" transform="translate(-329.351 -126.379)">
        <g id="Grupo_736">
            <path id="Trazado_3359" d="M383.951 142.1a.343.343 0 0 1-.342-.342v-4.148a7.851 7.851 0 0 1 2.586-5.2l2.693-2.425a.342.342 0 0 1 .457.508l-2.688 2.421a7.132 7.132 0 0 0-2.364 4.7v4.148a.342.342 0 0 1-.342.338z" class="cls-20"/>
        </g>
        <g id="Grupo_737" class="cls-3">
            <path id="Trazado_3360" d="M392.022 126.51a1.4 1.4 0 0 0-1.4.139 3.653 3.653 0 0 0-.988.875c-.939 1.169-1.262 2.749-.715 3.516a.992.992 0 0 0 .31.288l.447.26a.972.972 0 0 1-.31-.288c-.548-.767-.225-2.346.715-3.515a3.631 3.631 0 0 1 .987-.875 1.4 1.4 0 0 1 1.4-.14z" class="cls-20"/>
            <path id="Trazado_3361" d="M391.068 126.91c.682-.394 1.344-.37 1.711.15.554.763.231 2.343-.708 3.512a3.678 3.678 0 0 1-.989.876c-.684.394-1.349.372-1.716-.148-.548-.767-.225-2.346.715-3.515a3.631 3.631 0 0 1 .987-.875z" class="cls-7"/>
        </g>
    </g>
    <g id="Grupo_741" transform="translate(-329.351 -126.379)">
        <g id="Grupo_739">
            <path id="Trazado_3362" d="M364.989 153.051a.342.342 0 0 1-.342-.342v-4.148a1.869 1.869 0 0 0-.583-1.518 1.712 1.712 0 0 0-1.48-.241l-3.044.57a.342.342 0 0 1-.125-.672l3.034-.568a2.363 2.363 0 0 1 2.044.379 2.52 2.52 0 0 1 .838 2.05v4.148a.342.342 0 0 1-.342.342z" class="cls-20"/>
        </g>
        <g id="Grupo_740" class="cls-3">
            <path id="Trazado_3363" d="M359.087 145.209a1.4 1.4 0 0 0-1.4.14 3.63 3.63 0 0 0-.987.875c-.94 1.169-1.262 2.748-.715 3.515a.982.982 0 0 0 .31.288l.446.261a.991.991 0 0 1-.309-.288c-.548-.768-.225-2.347.714-3.516a3.636 3.636 0 0 1 .988-.875 1.4 1.4 0 0 1 1.4-.139z" class="cls-20"/>
            <path id="Trazado_3364" d="M358.134 145.609c.681-.393 1.344-.369 1.711.15.554.764.231 2.343-.709 3.512a3.629 3.629 0 0 1-.989.876c-.683.4-1.349.372-1.715-.147-.548-.768-.225-2.347.714-3.516a3.636 3.636 0 0 1 .988-.875z" class="cls-7"/>
        </g>
    </g>
    <path id="Trazado_3365" d="M369.723 148.411c.482.492 1.635.548 5.591-1.27s7.5-3.71 6.538-4.37c-1.721-1.177-12.888 4.865-12.129 5.64z" class="cls-24" transform="translate(-329.351 -126.379)"/>
    <path id="Trazado_3366" d="M394.876 185.227c-1.488-1.137-3.224-1.366-3.877-.511s.022 2.47 1.51 3.608 3.224 1.366 3.877.511-.022-2.471-1.51-3.608z" class="cls-24" transform="translate(-329.351 -126.379)"/>
    <path id="Trazado_3367" d="M378.889 151.314c.207.358 1.17.189 2.152-.377s1.61-1.317 1.4-1.676-1.17-.189-2.152.378-1.607 1.317-1.4 1.675z" class="cls-24" transform="translate(-329.351 -126.379)"/>
</svg>
