<svg xmlns="http://www.w3.org/2000/svg" id="Componente_265_1" width="105.883" height="105.882" viewBox="0 0 105.883 105.882">
    <defs>
        <style>
            .cls-4{fill:#f6b968}.cls-5{fill:#eeaa59}.cls-6{fill:#33302f}.cls-7{fill:#22201f}.cls-8{fill:#ffcc90}.cls-9{fill:#ffe0bc}.cls-11{fill:#2a7b6d}.cls-12{fill:#f2ebec}.cls-13{fill:#a83a48}.cls-14{fill:#702730}
        </style>
    </defs>
    <path id="Trazado_2911" fill="#56bcbf" d="M113.942 61A52.941 52.941 0 1 1 61 8.061 52.941 52.941 0 0 1 113.942 61z" transform="translate(-8.059 -8.061)"/>
    <path id="Trazado_2912" fill="#44403e" d="M355.946 101.835l20.1.589a52.555 52.555 0 0 0-13.674-26.858h-6.423z" transform="translate(-271.049 -59.093)"/>
    <path id="Trazado_2913" fill="#f47747" d="M39.41 260.243l-29.477-6.6a52.73 52.73 0 0 0 10.861 25.729l13.173 4.678z" transform="translate(-9.476 -193.714)"/>
    <path id="Trazado_2914" d="M217.858 124.2a1.939 1.939 0 0 0 1.922 1.916 1.939 1.939 0 0 0 2.26-1.5l1.484-14.982a1.939 1.939 0 0 0-1.922-1.916 1.937 1.937 0 0 0-2.26 1.5z" class="cls-4" transform="translate(-166.655 -83.389)"/>
    <path id="Trazado_2915" d="M218.1 122.866l-.007-15.621c.049-.506 1.858-1.1 2.316-1.372L219 123.108a7.964 7.964 0 0 0-.227 1.176 1.619 1.619 0 0 1-.673-1.418z" class="cls-5" transform="translate(-166.841 -82.003)"/>
    <path id="Trazado_2916" d="M201.664 133.48a1.939 1.939 0 0 0 2 1.837 1.94 1.94 0 0 0 2.2-1.592l.968-15.253c.055-.946-.927-1.546-2.085-1.614a1.939 1.939 0 0 0-2.2 1.592z" class="cls-4" transform="translate(-154.415 -90.305)"/>
    <path id="Trazado_2917" d="M201.671 134.594l.843-15.4c.05-.505 1.008-.505 1.467-.776l-1.681 16.988a1.916 1.916 0 0 0 .046.607 1.621 1.621 0 0 1-.675-1.419z" class="cls-5" transform="translate(-154.417 -91.484)"/>
    <path id="Trazado_2918" d="M184.329 134.913a1.938 1.938 0 0 0 2 1.839 1.94 1.94 0 0 0 2.2-1.593l.879-15.028a1.937 1.937 0 0 0-2-1.839 1.94 1.94 0 0 0-2.2 1.592z" class="cls-4" transform="translate(-141.311 -91.389)"/>
    <path id="Trazado_2919" d="M386.871 162.532a1.3 1.3 0 0 1 .518-.294l.074-1.242a.463.463 0 1 1 .925.054l-.074 1.239a1.31 1.31 0 0 1 .443.314 1.335 1.335 0 1 1-1.886-.071z" class="cls-6" transform="translate(-294.104 -123.344)"/>
    <path id="Trazado_2920" d="M403.6 161.991l.073-1.244a.463.463 0 0 1 .925.054l-.073 1.24a1.324 1.324 0 0 1 .443.313 1.335 1.335 0 1 1-1.888-.071 1.315 1.315 0 0 1 .52-.292z" class="cls-6" transform="translate(-306.356 -123.157)"/>
    <path id="Trazado_2921" d="M420.024 161.674l.073-1.243a.463.463 0 1 1 .925.055l-.072 1.238a1.333 1.333 0 0 1 .371 2.2 1.336 1.336 0 0 1-1.816-1.96 1.311 1.311 0 0 1 .519-.29z" class="cls-6" transform="translate(-318.774 -122.917)"/>
    <path id="Trazado_2922" d="M404.386 167.966a1.321 1.321 0 1 1-1.865-.069 1.319 1.319 0 0 1 1.865.069z" class="cls-7" transform="translate(-305.939 -128.625)"/>
    <path id="Trazado_2923" d="M420.683 167.768a1.321 1.321 0 1 1-1.864-.069 1.321 1.321 0 0 1 1.864.069z" class="cls-7" transform="translate(-318.26 -128.475)"/>
    <path id="Trazado_2924" d="M388.228 168.17a1.32 1.32 0 1 1-1.865-.069 1.317 1.317 0 0 1 1.865.069z" class="cls-7" transform="translate(-293.725 -128.779)"/>
    <path id="Trazado_2925" d="M194.35 88.3c-1.173.414-14.916 7.825-15.3 9.807-.325 1.684-.2 12.148-.115 15.027v.361a2.361 2.361 0 0 0 4.685 0v-12.024a2.047 2.047 0 0 1 .391-.77c.8-.686 7.483-3.819 10.687-4.033l3.987-4.442-4.194-3.958a.906.906 0 0 0-.141.032z" class="cls-8" transform="translate(-137.164 -68.695)"/>
    <path id="Trazado_2926" d="M181.1 182.355a1.811 1.811 0 0 1-.717.158 1.917 1.917 0 0 1-.73-.146 9.427 9.427 0 0 1 .133-3 .458.458 0 0 1 .439-.326.5.5 0 0 1 .469.318 9.68 9.68 0 0 1 .406 2.996z" class="cls-9" transform="translate(-137.734 -137.314)"/>
    <path id="Trazado_2927" d="M181.3 126.516a.162.162 0 0 0 .049.218l.835.57a.15.15 0 0 0 .212-.04.161.161 0 0 0-.051-.218l-.833-.57a.149.149 0 0 0-.213.039z" class="cls-9" transform="translate(-139.003 -97.557)"/>
    <path id="Trazado_2928" d="M179.919 128.709a.166.166 0 0 0 .047.22l.835.57a.15.15 0 0 0 .213-.04.162.162 0 0 0-.051-.217l-.834-.571a.147.147 0 0 0-.211.039z" class="cls-9" transform="translate(-137.961 -99.216)"/>
    <path id="Rectángulo_189" fill="#c1e4ea" d="M0 0H20.236V44.416H0z" transform="rotate(-79.73 44.04 10.178)"/>
    <path id="Trazado_2929" d="M164.029 170l-39.993-7.246 3.064-16.908 39.993 7.246zm-38.2-8.49l36.955 6.7 2.514-13.871-36.955-6.7z" class="cls-11" transform="translate(-95.734 -112.222)"/>
    <path id="Trazado_2930" d="M155.175 178.4a2.6 2.6 0 1 1-2.092-3.018 2.6 2.6 0 0 1 2.092 3.018z" class="cls-11" transform="translate(-115.378 -134.521)"/>
    <path id="Trazado_2931" d="M258.35 197.1a2.6 2.6 0 1 1-2.093-3.019 2.6 2.6 0 0 1 2.093 3.019z" class="cls-11" transform="translate(-193.375 -148.655)"/>
    <path id="Trazado_2932" d="M199.443 177.642a6.06 6.06 0 1 1-4.882-7.042 6.059 6.059 0 0 1 4.882 7.042z" class="cls-11" transform="translate(-143.649 -130.86)"/>
    <path id="Trazado_2933" d="M232.968 87.792l.207 8.4a2.046 2.046 0 0 1 1.463.289c2.146 1.943 1.913 3.534.368 6.018a66.487 66.487 0 0 0-3.585 5.612c-3.223 6.028-1.03 6.258.094 6.973 2.021 1.286 5.389-6.207 8.177-8.268 3.771-2.786 8.774-6.246 8.774-6.246h12.071V87.822s-25.187-.392-27.569-.03z" class="cls-8" transform="translate(-175.638 -68.219)"/>
    <path id="Trazado_2934" d="M235.813 183.444a7.034 7.034 0 0 1-1.246-.764h-.006l-.005-.005a7 7 0 0 1-1.06-1c.593-.775 1.466-1.946 2.256-2.052a1.224 1.224 0 0 1 .919.3h.007a1.225 1.225 0 0 1 .527.811c.108.789-.798 1.936-1.392 2.71z" class="cls-9" transform="translate(-178.482 -137.742)"/>
    <path id="Trazado_2935" d="M252.328 161.215c-.045.071.036.2.185.3l1.7 1.1c.147.1.3.114.348.046.047-.071-.037-.205-.185-.3l-1.7-1.1c-.148-.1-.305-.116-.352-.045z" class="cls-9" transform="translate(-192.708 -123.808)"/>
    <path id="Trazado_2936" d="M250.923 163.393c-.047.072.037.206.182.3l1.7 1.1c.148.1.306.116.351.047.045-.072-.038-.207-.185-.3l-1.7-1.1c-.147-.095-.305-.115-.348-.045z" class="cls-9" transform="translate(-191.646 -125.455)"/>
    <path id="Rectángulo_190" d="M0 0H6.612V20.15H0z" class="cls-12" transform="translate(78.285 17.181)"/>
    <path id="Trazado_2937" d="M234.571 294.759a1.744 1.744 0 0 1-2.394.587 1.744 1.744 0 0 1-.586-2.4l3.436-5.663a1.743 1.743 0 0 1 2.395-.587 1.743 1.743 0 0 1 .586 2.394z" class="cls-4" transform="translate(-176.85 -218.511)"/>
    <path id="Trazado_2938" d="M195.643 316.348c-.887.376-4.153.895-4.528.007l-.772-.822c-.376-.886-1.588-3.755-.8-3.207 4.024 2.792 10.841-1.768 10.841-1.768a1.742 1.742 0 0 1 2.283.928 1.741 1.741 0 0 1-.926 2.284z" class="cls-4" transform="translate(-145.059 -236.633)"/>
    <path id="Trazado_2939" d="M214 299.681l5.74-3.175a1.677 1.677 0 0 0 .492-.409 1.642 1.642 0 0 0 .431-.556l2.017-5.112c.138-.289-2.851 4.649-2.851 4.649L211 300.514a10 10 0 0 0 3-.833z" class="cls-5" transform="translate(-161.473 -221.512)"/>
    <path id="Trazado_2940" d="M251.844 291.477a1.743 1.743 0 0 1-2.308.865 1.743 1.743 0 0 1-.866-2.309l2.741-6.033a1.743 1.743 0 0 1 2.308-.865 1.744 1.744 0 0 1 .867 2.309z" class="cls-4" transform="translate(-189.834 -215.89)"/>
    <path id="Trazado_2941" d="M217.77 315.1c-.837.478-4.018 1.38-4.494.544l-.865-.726c-.477-.837.361-1.055 1.2-1.534l8.188-4.6a1.742 1.742 0 0 1 2.378.65 1.743 1.743 0 0 1-.649 2.378z" class="cls-4" transform="translate(-162.437 -235.228)"/>
    <path id="Trazado_2942" d="M225.7 295.635l5.741-3.173a1.738 1.738 0 0 0 .493-.409 1.719 1.719 0 0 0 .431-.559l2.756-5.79a1.591 1.591 0 0 0 .142-.886l-3.732 6.214-8.838 5.436a9.971 9.971 0 0 0 3.007-.833z" class="cls-5" transform="translate(-170.314 -217.28)"/>
    <path id="Trazado_2943" d="M264.206 291.613a1.745 1.745 0 0 1-2.308.865 1.744 1.744 0 0 1-.867-2.308l2.742-6.03a1.742 1.742 0 0 1 2.308-.866 1.744 1.744 0 0 1 .866 2.309z" class="cls-4" transform="translate(-199.179 -215.993)"/>
    <path id="Trazado_2944" d="M230.136 315.24c-.837.478-4.018 1.38-4.5.543l-.864-.727c-.477-.835.361-1.056 1.2-1.531l8.188-4.6a1.741 1.741 0 0 1 2.376.65 1.742 1.742 0 0 1-.648 2.378z" class="cls-4" transform="translate(-171.785 -235.332)"/>
    <path id="Trazado_2945" d="M255.879 305.018a2.381 2.381 0 0 1-3.287-.6 2.224 2.224 0 0 1 .235-3.209l7.638-5.861c1.141-.757 2.687-1.28 3.462-.275 1.006 1.3-.147 2.693-1.442 3.91z" class="cls-8" transform="translate(-192.485 -224.609)"/>
    <path id="Trazado_2946" d="M153.94 276.712c-.985.494-9.945 2.2-11.013.611-1.4-2.085-.873-3.374.947-5.144a57.464 57.464 0 0 0 4.193-3.978c3.975-4.4 2.28-5.187 1.38-5.891-1.638-1.279-5.835 4.1-8.617 5.254-3.758 1.556-8.7 3.425-8.7 3.425l-8.6-2.029-2.321 10.74s20.36 5.4 21.433 5.294c.966-.092 11.548-2.509 14.32-4.442l-2.782-4.063a.873.873 0 0 1-.24.223z" class="cls-8" transform="translate(-93.597 -200.116)"/>
    <path id="Rectángulo_191" d="M0 0H18.735V6.147H0z" class="cls-12" transform="rotate(-77.116 66.397 26.652)"/>
    <path id="Trazado_2947" d="M87.917 350.939a1.24 1.24 0 0 0-.382-.4l.271-1.124a.431.431 0 1 0-.838-.2l-.271 1.12a1.253 1.253 0 0 0-.479.16 1.241 1.241 0 1 0 1.7.449z" class="cls-13" transform="translate(-66.678 -265.707)"/>
    <path id="Trazado_2948" d="M73.191 345.919l.273-1.125a.431.431 0 0 0-.839-.2l-.271 1.122a1.2 1.2 0 0 0-.478.158 1.251 1.251 0 1 0 1.314.047z" class="cls-13" transform="translate(-55.835 -262.217)"/>
    <path id="Trazado_2949" d="M58.664 341.181l.273-1.124a.43.43 0 1 0-.837-.2l-.272 1.121a1.221 1.221 0 0 0-.48.158 1.242 1.242 0 1 0 1.7.45 1.2 1.2 0 0 0-.384-.405z" class="cls-13" transform="translate(-44.854 -258.636)"/>
    <path id="Trazado_2950" d="M72.327 351.048a1.227 1.227 0 1 0 1.678.443 1.228 1.228 0 0 0-1.678-.443z" class="cls-14" transform="translate(-56.182 -267.221)"/>
    <path id="Trazado_2951" d="M57.89 346.448a1.227 1.227 0 1 0 1.677.446 1.228 1.228 0 0 0-1.677-.446z" class="cls-14" transform="translate(-45.268 -263.744)"/>
    <path id="Trazado_2952" d="M86.638 355.613a1.228 1.228 0 1 0 1.677.446 1.226 1.226 0 0 0-1.677-.446z" class="cls-14" transform="translate(-67 -270.673)"/>
    <path id="Trazado_2953" d="M228.593 267.214a5.47 5.47 0 0 0-.737-.859h-.006a5.336 5.336 0 0 0-.9-.685c-.52.548-1.306 1.36-1.291 1.977a.942.942 0 0 0 .343.665v.005a.951.951 0 0 0 .685.3c.621-.017 1.387-.853 1.906-1.403z" class="cls-9" transform="translate(-172.555 -202.799)"/>
    <path id="Trazado_2954" d="M292.457 302.806a2.155 2.155 0 0 0-.434-.559 2.207 2.207 0 0 0-.6-.389 5.927 5.927 0 0 0-1.423 1.848.467.467 0 0 0 .152.477.494.494 0 0 0 .5.116 5.987 5.987 0 0 0 1.805-1.493z" class="cls-9" transform="translate(-221.186 -230.157)"/>
    <path id="Trazado_2955" d="M211.607 284.11c.059-.052.195 0 .3.124l1.264 1.4c.11.121.15.262.093.315-.058.052-.194 0-.3-.126l-1.263-1.4c-.11-.12-.151-.263-.094-.315z" class="cls-9" transform="translate(-161.915 -216.729)"/>
    <path id="Trazado_2956" d="M213.4 282.5c.059-.052.2 0 .3.121l1.264 1.4c.109.122.151.263.093.315-.058.053-.195 0-.305-.125l-1.262-1.4c-.11-.119-.152-.262-.094-.311z" class="cls-9" transform="translate(-163.268 -215.512)"/>
    <path id="Trazado_2957" d="M260.661 331.739c.066-.041.173.009.24.109l.766 1.177c.066.1.066.219 0 .26-.066.044-.174-.008-.24-.11l-.766-1.175c-.067-.1-.066-.219 0-.262z" class="cls-9" transform="translate(-198.98 -252.739)"/>
    <path id="Trazado_2958" d="M262.7 330.457c.067-.042.174.007.241.108l.766 1.177c.067.1.067.219 0 .26-.066.042-.174-.007-.24-.11l-.767-1.176c-.066-.1-.066-.219 0-.26z" class="cls-9" transform="translate(-200.523 -251.77)"/>
</svg>
