<svg xmlns="http://www.w3.org/2000/svg" id="Componente_280_15" width="24" height="24" viewBox="0 0 24 24">
    <defs>
        <style>
            .cls-2{fill:#7d7d7d}
        </style>
    </defs>
    <path id="Trazado_2987" fill="none" d="M0 0h24v24H0z"/>
    <g id="Grupo_744" transform="translate(0 -73.89)">
        <g id="Grupo_743" transform="translate(0 78.736)">
            <path id="Trazado_3370" d="M93.488 256.572a2.108 2.108 0 1 0 2.112 2.108 2.108 2.108 0 0 0-2.112-2.108zm0 3.025a.917.917 0 1 1 .917-.917.917.917 0 0 1-.917.92z" class="cls-2" transform="translate(-85.988 -246.08)"/>
            <path id="Trazado_3371" d="M281.957 256.572a2.108 2.108 0 1 0 2.109 2.108 2.108 2.108 0 0 0-2.109-2.108zm0 3.025a.917.917 0 1 1 .917-.917.916.916 0 0 1-.917.92z" class="cls-2" transform="translate(-263.338 -246.08)"/>
            <path id="Trazado_3372" d="M31.962 133.051a.539.539 0 0 1-.537.537h-7.413a.539.539 0 0 1-.537-.537v-.322a.539.539 0 0 1 .537-.537h7.413a.539.539 0 0 1 .537.537z" class="cls-2" transform="translate(-22.09 -129.038)"/>
            <path id="Trazado_3373" d="M65.676 85.894c-.773-.2-1.216-.327-1.519-.914l-1.015-2.055a2.173 2.173 0 0 0-1.753-1.066H60a.179.179 0 0 1-.187-.184v-1.724a1.114 1.114 0 0 0-1.183-1.215H47.314c-1.152 0-1.7.547-1.7 1.215v1.08a.312.312 0 0 0 .311.321h6.335a1.076 1.076 0 0 1 1.074 1.074v.322a1.076 1.076 0 0 1-1.074 1.074h-6.333a.285.285 0 0 0-.311.31v.368c0 .3.4.3.4.3h4.263a1.076 1.076 0 0 1 1.074 1.074v.326a1.076 1.076 0 0 1-1.074 1.074h-4.2s-.472-.009-.472.367v2.61a1.219 1.219 0 0 0 1.215 1.215h.678c.152 0 .175-.085.175-.127a2.748 2.748 0 0 1 5.5 0c0 .043-.012.127.1.127h5.416c.107 0 .1-.091.1-.127a2.748 2.748 0 0 1 5.5 0c0 .043 0 .127.066.127h1.366a1.2 1.2 0 0 0 1.2-1.2v-2.284c.001-1.921-.605-1.921-1.247-2.088zm-2.285-.107h-3.418a.16.16 0 0 1-.16-.137V82.8s-.008-.109.173-.109h.975a1.933 1.933 0 0 1 1.56.949l.9 1.829a1.432 1.432 0 0 0 .122.2c.036.043-.018.118-.152.118z" class="cls-2" transform="translate(-42.925 -78.736)"/>
            <path id="Trazado_3374" d="M7.9 191.487a.539.539 0 0 1-.537.537H.537a.539.539 0 0 1-.537-.537v-.322a.539.539 0 0 1 .537-.537h6.822a.539.539 0 0 1 .537.537z" class="cls-2" transform="translate(0 -184.027)"/>
        </g>
    </g>
</svg>
