<svg xmlns="http://www.w3.org/2000/svg" width="200.969" height="200.969" viewBox="0 0 200.969 200.969">
    <g>
        <g>
            <g>
                <g>
                    <path fill="#ffcc3e" d="M353.29 279.316c0 55.39-45.094 62.78-100.484 62.78s-100.484-7.389-100.484-62.78 18.84-138.189 100.484-138.189S353.29 223.923 353.29 279.316z" transform="translate(-152.321 -141.127)"/>
                </g>
            </g>
            <g>
                <g>
                    <path fill="#fbbe2b" d="M347.872 268.162c0 55.393-45.094 62.8-100.484 62.8-40.447 0-75.363-3.957-91.253-27.633 18.4 12.622 46.851 15.072 78.691 15.072 55.393 0 100.484-7.409 100.484-62.8 0-33.663-6.971-77.5-30.836-106.639 34.039 27.572 43.398 80.2 43.398 119.2z" transform="translate(9.231 18.966) translate(-156.135 -148.963)"/>
                </g>
            </g>
        </g>
    </g>
    <g>
        <g>
            <path d="M227.419 216.633a6.281 6.281 0 0 1-6.281-6.281 12.561 12.561 0 0 0-25.121 0 6.28 6.28 0 1 1-12.559 0 25.121 25.121 0 0 1 50.242 0 6.281 6.281 0 0 1-6.281 6.281z" transform="translate(25.121 81.654) translate(50.242 25.094) translate(-183.458 -185.231)"/>
        </g>
        <g>
            <path d="M187.821 206.265a25.15 25.15 0 0 1-25.121-25.121 6.28 6.28 0 1 1 12.559 0 12.561 12.561 0 1 0 25.121 0 6.281 6.281 0 0 1 12.562 0 25.15 25.15 0 0 1-25.121 25.121z" transform="translate(25.121 81.654) translate(-162.7 -174.863)"/>
        </g>
        <g>
            <path d="M229.361 206.265a25.15 25.15 0 0 1-25.121-25.121 6.281 6.281 0 0 1 12.562 0 12.561 12.561 0 1 0 25.121 0 6.281 6.281 0 0 1 12.562 0 25.152 25.152 0 0 1-25.124 25.121z" transform="translate(25.121 81.654) translate(100.542) translate(-204.24 -174.863)"/>
        </g>
        <path fill="#599ddf" d="M233.39 235.487s-18.843 0-18.843-18.84c0-12.562 18.843-31.4 18.843-31.4s18.84 18.84 18.84 31.4c0 18.84-18.84 18.84-18.84 18.84z" transform="translate(25.121 81.654) translate(-89.058 -160.117)"/>
    </g>
</svg>
